# Blender 4.0.2
# www.blender.org
mtllib Warrior_RPG_LowPoly.mtl
o Warrior-RPG-Lowpoly
v 0.114161 0.936187 -0.112071
v -0.103464 0.839253 -0.112071
v -0.103464 0.839253 -0.180150
v 0.114161 0.936187 -0.180150
v -0.140634 0.922247 -0.180179
v -0.140634 0.922247 -0.112107
v 0.077175 1.019262 -0.180179
v 0.077175 1.019262 -0.112107
v 0.045664 1.193618 -0.103183
v -0.052873 1.233677 0.023695
v -0.046854 1.207792 0.018556
v -0.066144 1.249912 -0.041276
v -0.030835 1.237095 0.027116
v -0.055777 1.197820 -0.039794
v -0.060310 1.113314 -0.008908
v -0.056297 1.190799 -0.002837
v -0.049042 1.203662 0.008881
v -0.054416 1.133717 0.008642
v -0.053529 1.198703 -0.019384
v 0.005049 0.639210 -0.019924
v 0.081584 0.675059 0.049104
v 0.111153 0.698652 -0.021209
v 0.082733 0.657166 -0.089379
v 0.082003 0.692315 -0.092651
v 0.143355 0.380168 -0.028858
v 0.090572 0.519395 -0.094666
v 0.080719 0.398791 0.038254
v 0.010927 0.377358 -0.028603
v 0.080283 0.297059 0.016957
v 0.080385 0.351657 0.032796
v 0.080625 0.366411 -0.092023
v -0.000213 0.214608 -0.079703
v 0.041888 0.195221 0.017112
v 0.167325 0.214627 -0.080026
v 0.127924 0.219689 -0.159217
v 0.009348 0.509037 -0.017945
v 0.126645 0.531978 -0.016858
v 0.076319 0.523049 0.051197
v 0.080392 0.375224 0.037722
v 0.080631 0.394813 -0.088486
v 0.128438 0.195217 0.017043
v 0.039927 0.219591 -0.159413
v 0.084192 0.179456 -0.087530
v 0.050639 0.767143 -0.063327
v 0.136761 0.504734 -0.018504
v 0.108980 0.739054 -0.022374
v 0.070066 0.742723 -0.076946
v 0.089985 0.763263 -0.022246
v 0.051865 0.513209 -0.097789
v 0.036344 0.642124 -0.087167
v -0.005051 0.639209 -0.019917
v -0.081709 0.675062 0.049071
v -0.111164 0.698657 -0.021301
v -0.082627 0.657167 -0.089416
v -0.081892 0.692316 -0.092686
v -0.143387 0.380177 -0.029006
v -0.090466 0.519397 -0.094717
v -0.080874 0.398795 0.038223
v -0.010960 0.377352 -0.028504
v -0.080410 0.297064 0.016931
v -0.080536 0.351662 0.032767
v -0.080542 0.366410 -0.092053
v 0.000257 0.214598 -0.079574
v -0.042027 0.195221 0.017164
v -0.167281 0.214636 -0.080209
v -0.127731 0.219690 -0.159327
v -0.009386 0.509031 -0.017846
v -0.126683 0.531986 -0.016978
v -0.076485 0.523052 0.051171
v -0.080549 0.375229 0.037692
v -0.080551 0.394814 -0.088517
v -0.128576 0.195227 0.016933
v -0.039734 0.219582 -0.159360
v -0.084138 0.179456 -0.087557
v -0.136798 0.504743 -0.018642
v -0.108980 0.739054 -0.022374
v -0.070066 0.742723 -0.076946
v -0.051754 0.513207 -0.097768
v -0.036257 0.642121 -0.087128
v 0.000024 0.690934 -0.098862
v -0.000001 0.640360 -0.021812
v -0.000023 0.676965 0.054377
v 0.000000 0.737508 0.062006
v 0.000000 0.742418 -0.084528
v -0.063175 0.759038 0.042872
v 0.063175 0.759038 0.042872
v -0.042039 1.106403 -0.028877
v -0.077422 1.033072 -0.091276
v -0.077146 0.991107 -0.114065
v -0.084978 0.939783 0.047723
v -0.080750 1.004181 0.027868
v -0.076587 0.937467 -0.110267
v -0.073150 0.894502 0.040453
v -0.063771 0.891571 -0.091623
v -0.113258 1.040167 -0.049319
v -0.175816 0.911296 -0.045433
v -0.093084 0.935362 -0.049319
v -0.050521 1.072039 -0.061582
v -0.059887 0.798435 0.045316
v -0.081928 0.806422 -0.019574
v -0.197498 0.826242 -0.049298
v -0.168257 0.816997 -0.084320
v -0.146607 0.921748 0.001683
v -0.168765 0.816233 -0.012175
v -0.139123 0.804912 -0.049298
v -0.241269 0.697149 -0.048083
v -0.212248 0.686426 -0.072612
v -0.219541 0.689081 -0.017782
v -0.198502 0.681498 -0.048083
v -0.039706 1.063254 -0.069770
v -0.044990 1.049070 -0.008073
v -0.159587 0.875177 0.005750
v -0.189394 0.883560 -0.045041
v -0.097477 0.872054 -0.049416
v -0.158774 1.010441 -0.035877
v -0.051679 0.806558 -0.059776
v -0.151500 0.748485 -0.049167
v -0.228056 0.768826 -0.049341
v -0.198891 0.771235 -0.095191
v -0.195626 0.770204 -0.000082
v -0.105346 0.946570 -0.049319
v -0.106771 0.991986 -0.103295
v -0.107032 0.992794 0.006627
v -0.135691 0.975989 0.016574
v -0.076842 1.061346 -0.046736
v -0.230105 0.668172 -0.021750
v -0.231994 0.668882 -0.072067
v -0.213123 0.662015 -0.072067
v -0.220056 0.664519 -0.021750
v -0.272837 0.589234 -0.079068
v -0.280131 0.596897 0.002655
v -0.191871 0.588013 -0.076691
v -0.193004 0.604787 0.005282
v -0.203268 0.576746 0.031012
v -0.244230 0.574772 -0.078559
v -0.252931 0.587760 0.000907
v -0.204885 0.626735 -0.078068
v -0.214494 0.636206 -0.007498
v -0.205324 0.609832 0.025627
v -0.206452 0.591687 -0.079368
v -0.206438 0.607842 0.001874
v -0.240056 0.540130 0.007030
v -0.235174 0.531033 -0.074497
v -0.229426 0.563961 0.002692
v -0.225284 0.555621 -0.077525
v -0.234635 0.616803 0.018243
v -0.243338 0.673036 -0.049328
v -0.171647 0.808657 -0.012177
v -0.171550 0.807634 -0.085066
v -0.120073 0.926218 -0.049319
v -0.080845 0.907009 0.045886
v -0.060164 0.861692 0.043619
v -0.090791 0.873553 -0.028196
v -0.174934 0.968503 -0.046129
v -0.199890 0.819724 -0.049303
v -0.142343 0.798554 -0.049301
v -0.211923 0.542405 -0.074288
v -0.216101 0.551761 0.007334
v -0.278108 0.569455 0.005673
v -0.270497 0.558303 -0.076207
v -0.145863 0.915351 -0.092367
v -0.158987 0.872496 -0.099135
v -0.133938 0.974465 -0.107181
v -0.158525 1.010887 -0.058284
v -0.208132 0.744046 -0.091785
v -0.204728 0.742923 -0.000086
v -0.121020 0.931831 0.000026
v -0.137151 0.867011 0.005656
v -0.173150 0.762023 -0.000082
v -0.118733 0.965559 0.016574
v -0.182234 0.734736 -0.000086
v -0.172093 0.761481 -0.095191
v -0.122277 0.925399 -0.090659
v -0.137133 0.870380 -0.098984
v -0.118999 0.965674 -0.107181
v -0.181333 0.734292 -0.091785
v -0.168134 0.717783 -0.048827
v -0.210523 0.685806 -0.017782
v -0.222029 0.689986 -0.072614
v -0.228743 0.595994 0.012946
v 0.077422 1.033072 -0.091276
v 0.077146 0.991107 -0.114065
v 0.084978 0.939783 0.047723
v 0.080750 1.004181 0.027868
v 0.076587 0.937467 -0.110267
v 0.073150 0.894502 0.040453
v 0.063771 0.891571 -0.091623
v 0.113247 1.040173 -0.049319
v 0.175816 0.911296 -0.045433
v 0.093144 0.935379 -0.049319
v 0.050521 1.072039 -0.061582
v 0.059887 0.798435 0.045316
v 0.081928 0.806422 -0.019574
v 0.197498 0.826242 -0.049298
v 0.168257 0.816996 -0.084320
v 0.146710 0.921923 0.001683
v 0.168765 0.816233 -0.012176
v 0.139123 0.804912 -0.049298
v 0.241269 0.697149 -0.048083
v 0.212248 0.686426 -0.072612
v 0.219541 0.689081 -0.017782
v 0.198502 0.681498 -0.048083
v 0.039706 1.063254 -0.069770
v 0.044990 1.049071 -0.008073
v 0.159587 0.875176 0.005750
v 0.189394 0.883560 -0.045041
v 0.097477 0.872054 -0.049416
v 0.158755 1.010472 -0.035877
v 0.051679 0.806558 -0.059776
v 0.151500 0.748485 -0.049167
v 0.228056 0.768826 -0.049341
v 0.198891 0.771235 -0.095191
v 0.195626 0.770204 -0.000082
v 0.105372 0.946558 -0.049319
v 0.106779 0.991981 -0.103295
v 0.107034 0.992793 0.006627
v 0.135699 0.976012 0.016574
v 0.076842 1.061347 -0.046736
v 0.230144 0.668066 -0.021750
v 0.232032 0.668776 -0.072067
v 0.213161 0.661909 -0.072067
v 0.220095 0.664413 -0.021750
v 0.272875 0.589127 -0.079068
v 0.280169 0.596791 0.002655
v 0.191910 0.587907 -0.076691
v 0.193043 0.604680 0.005282
v 0.203307 0.576639 0.031012
v 0.244268 0.574666 -0.078559
v 0.252970 0.587654 0.000907
v 0.204924 0.626629 -0.078068
v 0.214533 0.636099 -0.007498
v 0.205362 0.609725 0.025627
v 0.206491 0.591581 -0.079368
v 0.206477 0.607736 0.001874
v 0.240095 0.540023 0.007030
v 0.235212 0.530927 -0.074497
v 0.229465 0.563855 0.002692
v 0.225323 0.555515 -0.077525
v 0.234673 0.616697 0.018243
v 0.243376 0.672930 -0.049328
v 0.038672 1.094744 -0.067832
v 0.171647 0.808656 -0.012177
v 0.171550 0.807634 -0.085066
v 0.120073 0.926219 -0.049319
v 0.080845 0.907009 0.045886
v 0.060164 0.861692 0.043619
v 0.090791 0.873553 -0.028196
v 0.174922 0.968640 -0.046129
v 0.199891 0.819724 -0.049303
v 0.142343 0.798554 -0.049301
v 0.211962 0.542300 -0.074288
v 0.216139 0.551655 0.007334
v 0.278146 0.569349 0.005673
v 0.270536 0.558197 -0.076207
v 0.148449 0.919593 -0.092367
v 0.158987 0.872496 -0.099135
v 0.134003 0.974625 -0.107181
v 0.158498 1.010932 -0.058284
v 0.208132 0.744045 -0.091785
v 0.204728 0.742923 -0.000086
v 0.121083 0.931887 0.000026
v 0.137151 0.867011 0.005655
v 0.173150 0.762023 -0.000082
v 0.118756 0.965577 0.016574
v 0.182234 0.734736 -0.000086
v 0.172092 0.761481 -0.095191
v 0.123054 0.926127 -0.090659
v 0.137133 0.870380 -0.098984
v 0.119070 0.965731 -0.107181
v 0.181333 0.734292 -0.091785
v 0.000000 1.052415 -0.095963
v 0.000000 0.991165 -0.105271
v 0.000000 0.940930 0.065022
v 0.000000 1.001783 0.041309
v 0.000000 0.935595 -0.101266
v 0.000000 0.890738 -0.085593
v 0.000000 0.783205 0.059196
v 0.000000 1.046530 0.002801
v 0.000000 0.806674 -0.062165
v 0.000000 0.908293 0.058267
v 0.168134 0.717783 -0.048827
v 0.210523 0.685806 -0.017782
v 0.222029 0.689986 -0.072614
v 0.228782 0.595888 0.012946
v 0.042039 1.106403 -0.028877
v 0.029544 1.252707 -0.041782
v 0.052873 1.233677 0.023695
v 0.046854 1.207792 0.018556
v 0.049127 1.177384 0.021589
v 0.044763 1.143852 0.014993
v 0.050208 1.129180 -0.032128
v 0.054278 1.164663 -0.044477
v 0.014731 1.077602 0.024880
v 0.042304 1.235139 -0.073022
v 0.041424 1.196320 -0.094626
v 0.039601 1.160725 -0.100528
v 0.040261 1.126319 -0.068025
v 0.055777 1.197820 -0.039794
v 0.048286 1.233999 -0.041276
v 0.013200 1.120822 0.032583
v 0.030883 1.165572 0.025449
v 0.006309 1.153897 0.037355
v 0.031700 1.166640 0.026466
v 0.046188 1.163226 0.016377
v 0.016174 1.075302 0.015196
v 0.035386 1.111038 0.016387
v 0.021829 1.107997 0.026579
v 0.049779 1.124983 -0.024938
v 0.063604 1.172187 -0.039152
v 0.053910 1.169165 -0.025625
v 0.057115 1.127146 -0.033813
v 0.051701 1.150718 -0.040382
v 0.069163 1.155639 -0.048238
v 0.042943 1.136008 0.017760
v 0.028216 1.096099 0.015967
v 0.004886 1.099077 0.035644
v 0.004886 1.106672 0.038234
v 0.004886 1.103917 0.035245
v 0.008363 1.094285 0.030292
v 0.000000 1.092174 -0.091833
v -0.029544 1.252707 -0.041782
v -0.049127 1.177384 0.021589
v -0.044763 1.143852 0.014993
v -0.050208 1.129180 -0.032128
v -0.054278 1.164663 -0.044477
v -0.014731 1.077602 0.024823
v -0.042304 1.235139 -0.073022
v -0.041424 1.196320 -0.094626
v -0.039601 1.160725 -0.100528
v -0.040261 1.126319 -0.068025
v -0.048286 1.233999 -0.041276
v -0.013200 1.120822 0.032583
v -0.030883 1.165572 0.025449
v -0.006309 1.153897 0.037355
v -0.031700 1.166640 0.026466
v -0.046188 1.163226 0.016377
v -0.016174 1.075302 0.015254
v -0.035386 1.111038 0.016387
v -0.021829 1.107997 0.026579
v -0.049784 1.124983 -0.024938
v -0.063610 1.172187 -0.039152
v -0.053916 1.169165 -0.025625
v -0.057120 1.127146 -0.033813
v -0.051707 1.150718 -0.040382
v -0.069168 1.155639 -0.048238
v -0.000000 1.260587 -0.041782
v -0.000000 1.237516 0.044189
v -0.000000 1.214894 0.038068
v -0.000000 1.162834 0.043926
v -0.000000 1.154770 0.041530
v -0.000000 1.123160 0.052993
v 0.000000 1.074689 0.029848
v -0.000000 1.239508 -0.089573
v -0.000000 1.198202 -0.111721
v -0.000000 1.159929 -0.124351
v -0.000000 1.123578 -0.093127
v -0.000000 1.114485 0.039101
v -0.000000 1.093516 0.031282
v 0.000000 1.071929 0.020036
v -0.000000 1.118797 0.050065
v -0.042943 1.136008 0.017760
v -0.028216 1.096099 0.015967
v -0.004886 1.099077 0.035644
v -0.004886 1.106672 0.038234
v -0.004886 1.103917 0.035245
v -0.008363 1.094285 0.030292
v -0.089985 0.763263 -0.022246
v -0.038672 1.094744 -0.067832
v 0.000000 1.079155 -0.007138
v -0.000000 0.767731 -0.068973
v -0.050639 0.767143 -0.063327
v 0.026850 0.740369 0.054883
v 0.027186 0.739676 0.069164
v 0.036610 0.794041 0.069794
v 0.036160 0.794735 0.055510
v -0.000020 0.706917 0.073619
v -0.000046 0.707275 0.061990
v -0.026804 0.740366 0.054874
v -0.026468 0.739671 0.069162
v -0.000014 0.804168 0.078746
v -0.000040 0.804880 0.067110
v -0.035407 0.794040 0.069792
v -0.035858 0.794734 0.055501
v 0.000000 0.862756 0.061939
v 0.000000 0.851999 -0.062123
v 0.054330 0.847591 -0.063457
v -0.054305 0.847592 -0.063464
v -0.021724 0.126539 -0.038249
v -0.144645 0.126574 -0.038714
v -0.131394 0.127014 -0.103642
v -0.041829 0.126992 -0.102964
v -0.141506 -0.000133 -0.107548
v -0.028555 -0.000159 -0.106991
v -0.018354 -0.000156 -0.039935
v -0.157102 -0.000124 -0.040465
v -0.022876 -0.000150 0.026904
v -0.023080 0.067187 0.029215
v -0.152495 -0.000120 0.026388
v -0.151896 0.067264 0.028726
v -0.086739 0.085648 0.029091
v -0.020215 -0.000143 0.116777
v -0.153466 0.073175 0.106578
v -0.087144 0.092914 0.136504
v -0.153921 -0.000113 0.107062
v -0.021343 0.073652 0.116423
v -0.086274 0.120260 0.004263
v -0.157112 0.015879 -0.040466
v -0.017575 0.015847 -0.039937
v -0.087159 -0.000126 0.138230
v -0.085328 0.127203 -0.129293
v -0.085114 -0.000149 -0.140767
v -0.131341 0.228442 -0.103181
v -0.085301 0.230516 -0.129533
v -0.021643 0.224021 -0.038551
v -0.041585 0.228421 -0.103180
v -0.149863 0.114904 -0.122809
v 0.003697 0.112881 -0.031514
v -0.168432 0.112927 -0.032166
v -0.085374 0.115818 -0.158964
v -0.052416 0.105595 0.005601
v -0.024397 0.114873 -0.122093
v -0.086253 0.222143 0.004449
v -0.144638 0.224048 -0.039017
v -0.118903 0.105610 0.005349
v 0.021680 0.126544 -0.038341
v 0.144602 0.126565 -0.038578
v 0.131472 0.127010 -0.103530
v 0.041906 0.126997 -0.103019
v 0.141577 -0.000138 -0.107424
v 0.028625 -0.000152 -0.107077
v 0.018300 -0.000151 -0.040040
v 0.157048 -0.000135 -0.040312
v 0.022697 -0.000149 0.026806
v 0.022904 0.067187 0.029122
v 0.152317 -0.000133 0.026532
v 0.151721 0.067251 0.028873
v 0.086566 0.085642 0.029117
v 0.019869 -0.000146 0.116675
v 0.153147 0.073157 0.106728
v 0.086771 0.092902 0.136531
v 0.153592 -0.000131 0.107208
v 0.021005 0.073648 0.116327
v 0.086150 0.120255 0.004290
v 0.157060 0.015869 -0.040312
v 0.017522 0.015852 -0.040044
v 0.086772 -0.000138 0.138252
v 0.085454 0.127205 -0.129267
v 0.085247 -0.000146 -0.140748
v 0.131430 0.228437 -0.103064
v 0.085440 0.230518 -0.129501
v 0.021611 0.224025 -0.038639
v 0.041674 0.228427 -0.103230
v 0.149975 0.114899 -0.122663
v -0.003754 0.112888 -0.031655
v 0.168375 0.112915 -0.031986
v 0.085555 0.115822 -0.158939
v 0.052289 0.105594 0.005565
v 0.024508 0.114882 -0.122181
v 0.086141 0.222138 0.004482
v 0.144607 0.224039 -0.038875
v 0.118776 0.105602 0.005437
v 0.007874 1.240458 -0.004038
v 0.036568 1.214224 0.016757
v -0.010311 1.214261 0.026356
v 0.038196 1.160574 0.065930
v 0.020806 1.253111 0.059028
v 0.005907 1.233970 0.051691
v 0.031552 1.233936 0.046422
v 0.055210 1.260677 -0.003153
v -0.051725 1.260411 -0.002568
v 0.037449 1.234564 0.001685
v 0.047979 1.217400 0.015169
v 0.019206 1.234671 0.015800
v 0.029783 1.217419 0.029358
v 0.066705 1.158803 0.041486
v 0.048229 1.242924 0.046817
v 0.043023 1.230359 0.042403
v 0.060418 1.242922 0.037308
v 0.057430 1.230363 0.031152
v -0.025849 1.269329 -0.024901
v -0.029350 1.235411 0.031942
v 0.008389 1.232290 0.035714
v 0.009902 1.284663 -0.043535
v -0.020960 1.231664 0.029582
v -0.006370 1.241419 0.032630
v 0.066144 1.249912 -0.041276
v 0.030835 1.237095 0.027116
v 0.060310 1.113314 -0.008908
v 0.053985 1.180753 -0.008555
v 0.048589 1.203662 0.008881
v 0.054416 1.133717 0.030815
v 0.052514 1.198703 -0.019384
v -0.000365 1.218896 0.037185
v -0.010162 1.159530 0.065930
v 0.010291 1.274992 0.059028
v -0.009576 1.256468 0.051691
v 0.006013 1.248931 0.054644
v -0.052024 1.190799 -0.002837
v -0.000000 1.272370 -0.058750
v -0.043573 1.215051 0.021547
v -0.064734 1.145796 0.024784
v -0.044600 1.236050 0.044300
v -0.055172 1.217528 0.024420
v -0.043249 1.216790 0.027198
v -0.021985 1.223246 0.030946
v -0.031487 1.207625 0.036762
v -0.035669 1.171615 0.036860
v -0.025838 1.223246 0.030946
v 0.049203 1.163459 -0.060857
v -0.049203 1.163459 -0.060857
v 0.055544 1.147464 -0.082636
v -0.055544 1.147464 -0.082636
v -0.000000 1.193618 -0.120687
v -0.045664 1.193618 -0.103183
v 0.054813 0.767143 -0.069628
v 0.097404 0.763263 -0.023628
v 0.000000 0.737508 0.070712
v -0.068383 0.759038 0.049287
v 0.068383 0.759038 0.049287
v -0.097404 0.763263 -0.023628
v 0.069127 0.802076 0.054644
v 0.097733 0.806450 -0.020415
v 0.056373 0.810464 -0.069003
v 0.000000 0.780555 0.076554
v -0.000000 0.811036 -0.074961
v -0.000000 0.767731 -0.075951
v -0.069127 0.802076 0.054644
v -0.097733 0.806450 -0.020415
v -0.056373 0.810464 -0.069003
v -0.054813 0.767143 -0.069628
v -0.006581 1.118816 -0.088775
v -0.000064 1.113284 -0.088781
v -0.000071 1.123998 -0.088772
v 0.005860 1.118816 -0.088775
v -0.000056 1.077177 -0.112627
v 0.000069 1.113501 -0.121536
v 0.010847 1.108357 -0.113538
v -0.011777 1.108354 -0.113538
v 0.000059 1.102903 -0.105063
v -0.000069 1.124000 -0.099753
v -0.006579 1.118816 -0.099749
v -0.000067 1.113283 -0.099753
v 0.005857 1.118816 -0.099750
v 0.069780 0.712849 0.051248
v 0.077361 0.755442 0.055198
vn 0.9136 0.4067 -0.0000
vn -0.9126 -0.4087 -0.0000
vn -0.0002 0.0004 1.0000
vn 0.0001 -0.0003 -1.0000
vn -0.6911 0.5207 0.5012
vn -0.8833 0.3795 0.2752
vn -0.8685 -0.0587 0.4923
vn -0.1888 0.9430 0.2742
vn -0.9868 0.0753 0.1434
vn 0.5403 0.0072 -0.8415
vn 0.5492 0.0982 -0.8299
vn 0.9979 0.0639 0.0072
vn -0.9962 0.0375 0.0790
vn 0.0538 -0.0487 -0.9974
vn 0.0101 0.4073 -0.9132
vn 0.0433 -0.0691 0.9967
vn 0.0225 -0.1117 0.9935
vn -0.7146 -0.6807 0.1610
vn -0.0002 -0.9819 -0.1892
vn 0.0001 -0.1274 -0.9919
vn 0.0406 -0.0207 0.9990
vn -0.0002 -0.5619 0.8272
vn 0.4676 -0.0794 0.8804
vn 0.9095 -0.3979 -0.1200
vn 0.4903 -0.5503 0.6759
vn 0.0014 -0.9857 -0.1687
vn -0.4626 -0.5684 0.6803
vn -0.8947 -0.4313 -0.1163
vn 0.9921 0.1044 0.0699
vn 0.9763 0.1937 0.0964
vn 0.0280 -0.2445 0.9692
vn 0.5354 0.0425 -0.8435
vn -0.4629 -0.2819 -0.8404
vn 0.9808 0.1697 0.0962
vn -0.4578 -0.0357 -0.8883
vn -0.9866 -0.0291 0.1604
vn -0.0027 0.0561 0.9984
vn 0.4779 -0.2704 -0.8358
vn -0.0000 0.4051 -0.9143
vn 0.4509 0.4929 -0.7441
vn 0.9352 0.3537 -0.0187
vn 0.7796 -0.6019 -0.1730
vn -0.0000 -0.7282 0.6854
vn -0.4616 -0.2158 -0.8605
vn -0.5388 0.0072 -0.8424
vn -0.9979 0.0640 0.0052
vn -0.5482 0.0980 -0.8306
vn 0.9960 0.0374 0.0809
vn -0.0084 0.4072 -0.9133
vn -0.0519 -0.0487 -0.9975
vn -0.0452 -0.0690 0.9966
vn -0.0244 -0.1117 0.9934
vn 0.7145 -0.6806 0.1620
vn -0.0424 -0.0205 0.9989
vn -0.4685 -0.0791 0.8799
vn -0.9094 -0.3978 -0.1217
vn -0.0012 -0.9857 -0.1687
vn -0.4916 -0.5502 0.6750
vn 0.4613 -0.5685 0.6812
vn 0.8949 -0.4314 -0.1146
vn -0.9922 0.1045 0.0680
vn -0.9765 0.1938 0.0946
vn -0.0299 -0.2445 0.9692
vn -0.5338 0.0425 -0.8445
vn 0.4644 -0.2820 -0.8395
vn -0.9810 0.1698 0.0944
vn 0.4594 -0.0358 -0.8875
vn 0.9863 -0.0292 0.1624
vn 0.0008 0.0562 0.9984
vn -0.4763 -0.2704 -0.8367
vn -0.4512 0.4927 -0.7441
vn -0.9351 0.3538 -0.0191
vn 0.4627 -0.2160 -0.8598
vn -0.0000 0.0847 0.9964
vn -0.4254 0.5155 0.7438
vn -0.6127 0.0340 0.7896
vn -0.1471 0.1615 -0.9758
vn -0.0000 0.0404 -0.9992
vn -0.0000 -0.2060 -0.9786
vn -0.3295 -0.2950 -0.8969
vn -0.4759 0.0353 0.8788
vn -0.4760 0.0426 0.8784
vn -0.9675 0.2529 -0.0072
vn 0.0977 0.2862 -0.9532
vn -0.9733 0.2237 -0.0523
vn -0.0587 -0.1238 -0.9906
vn -0.3526 0.6262 -0.6954
vn -0.4266 0.9022 0.0636
vn -0.4499 0.4305 -0.7825
vn -0.0000 0.3296 -0.9441
vn 0.0675 0.2689 0.9608
vn -0.1007 -0.2489 0.9633
vn -0.7876 0.3494 -0.5075
vn -0.4614 0.4824 0.7446
vn -0.0000 0.5118 0.8591
vn -0.3512 0.6197 0.7019
vn -0.0000 0.5163 0.8564
vn -0.3120 0.3048 -0.8999
vn -0.5026 0.8645 0.0071
vn -0.7068 0.6132 0.3528
vn -0.4507 0.2269 -0.8633
vn 0.6858 0.0294 -0.7272
vn 0.7921 -0.1442 -0.5931
vn 0.6490 0.0335 0.7601
vn 0.8979 0.1141 0.4251
vn 0.7873 0.2685 -0.5550
vn -0.2843 0.6346 -0.7187
vn -0.3776 0.8260 0.4185
vn 0.6663 0.4524 0.5927
vn 0.4799 -0.1851 0.8576
vn -0.1238 0.4973 0.8587
vn -0.0025 0.2208 -0.9753
vn 0.4743 0.0079 -0.8803
vn -0.6852 -0.2908 0.6677
vn -0.6735 -0.4328 -0.5992
vn -0.0649 -0.8489 -0.5245
vn -0.0959 -0.7137 0.6939
vn -0.6971 0.0940 -0.7107
vn -0.7920 0.1689 0.5866
vn -0.2837 0.3271 0.9014
vn -0.4460 0.3778 0.8114
vn -0.9895 0.1444 -0.0053
vn -0.9485 0.3129 -0.0495
vn 0.0391 -0.9991 0.0133
vn 0.4420 -0.3368 0.8314
vn -0.4903 0.0229 0.8712
vn -0.4695 -0.0559 0.8811
vn 0.4097 -0.4351 0.8018
vn -0.6163 0.0184 0.7873
vn -0.6301 -0.0735 0.7731
vn -0.9894 -0.1021 -0.1032
vn 0.8090 -0.5877 -0.0093
vn 0.3651 -0.2941 -0.8833
vn -0.8785 0.4776 -0.0075
vn -0.4090 0.2909 0.8649
vn 0.5318 -0.0259 0.8465
vn -0.4319 0.2465 -0.8676
vn 0.6073 -0.2544 0.7527
vn 0.4827 -0.1472 0.8633
vn 0.8570 0.1864 0.4804
vn -0.0000 -0.4370 -0.8994
vn -0.3407 -0.5045 -0.7934
vn 0.0705 0.9975 0.0029
vn -0.9762 -0.1645 -0.1412
vn -0.6100 -0.4001 0.6840
vn -0.6093 -0.3675 0.7026
vn -0.0000 -0.1087 0.9941
vn 0.4331 -0.3254 -0.8406
vn 0.4609 -0.1088 -0.8807
vn -0.0000 -0.0376 -0.9993
vn -0.9252 -0.3710 -0.0798
vn -0.4328 -0.3254 -0.8407
vn -0.0000 -0.2835 -0.9590
vn -0.9921 0.1249 -0.0130
vn -0.9624 0.2703 -0.0257
vn -0.4031 0.2683 0.8749
vn 0.4797 -0.8166 0.3210
vn 0.6022 -0.6005 -0.5261
vn 0.4841 -0.4427 0.7548
vn -0.7184 0.5947 -0.3608
vn -0.4648 0.0931 -0.8805
vn 0.4504 -0.1988 -0.8704
vn 0.5766 -0.2112 -0.7893
vn -0.4789 0.0532 -0.8763
vn -0.4323 0.2034 -0.8785
vn 0.4190 -0.2153 -0.8821
vn 0.9486 -0.3136 -0.0428
vn 0.8581 -0.5119 -0.0391
vn 0.4156 -0.2580 0.8722
vn 0.9779 0.2067 -0.0313
vn 0.9472 -0.3205 -0.0090
vn 0.9715 -0.2370 -0.0077
vn -0.9430 0.3328 0.0029
vn -0.5159 -0.0309 -0.8561
vn -0.4468 -0.0174 -0.8945
vn 0.4145 -0.3884 -0.8230
vn 0.8227 -0.5682 -0.0159
vn 0.5066 -0.0823 -0.8582
vn -0.9753 -0.1682 0.1433
vn 0.6127 0.0340 0.7896
vn 0.4254 0.5155 0.7438
vn 0.1471 0.1615 -0.9759
vn 0.3295 -0.2950 -0.8969
vn 0.4757 0.0345 0.8789
vn 0.9699 0.2434 0.0015
vn 0.4774 0.0421 0.8777
vn -0.0977 0.2862 -0.9532
vn 0.0587 -0.1238 -0.9906
vn 0.9733 0.2237 -0.0523
vn 0.3526 0.6262 -0.6954
vn 0.4499 0.4305 -0.7825
vn 0.4266 0.9022 0.0636
vn 0.1007 -0.2489 0.9633
vn -0.0675 0.2689 0.9608
vn 0.7876 0.3494 -0.5075
vn 0.4613 0.4822 0.7448
vn 0.3512 0.6197 0.7019
vn 0.3113 0.3046 -0.9002
vn 0.5024 0.8646 0.0071
vn 0.7064 0.6136 0.3529
vn 0.3407 -0.5044 -0.7934
vn 0.9252 -0.3709 -0.0797
vn 0.4508 0.2269 -0.8633
vn -0.7921 -0.1442 -0.5931
vn -0.6858 0.0292 -0.7272
vn -0.8979 0.1141 0.4251
vn -0.6491 0.0340 0.7599
vn -0.7873 0.2685 -0.5550
vn -0.6663 0.4524 0.5927
vn 0.3776 0.8260 0.4185
vn 0.2843 0.6346 -0.7187
vn -0.4799 -0.1851 0.8576
vn -0.4743 0.0079 -0.8803
vn 0.0025 0.2208 -0.9753
vn 0.1238 0.4973 0.8587
vn 0.6852 -0.2908 0.6677
vn 0.0959 -0.7137 0.6939
vn 0.0649 -0.8489 -0.5245
vn 0.6735 -0.4328 -0.5992
vn 0.6971 0.0940 -0.7107
vn 0.7920 0.1689 0.5866
vn 0.2837 0.3271 0.9014
vn 0.4458 0.3780 0.8114
vn 0.9483 0.3135 -0.0495
vn 0.9894 0.1449 -0.0053
vn -0.0391 -0.9991 0.0133
vn -0.4420 -0.3368 0.8314
vn -0.4099 -0.4347 0.8019
vn 0.4696 -0.0556 0.8812
vn 0.4903 0.0229 0.8712
vn 0.7900 0.1122 -0.6027
vn 0.6163 0.0184 0.7873
vn 0.9894 -0.1022 -0.1031
vn 0.6301 -0.0735 0.7731
vn -0.8095 -0.5871 -0.0094
vn -0.3652 -0.2943 -0.8832
vn 0.8785 0.4776 -0.0075
vn 0.4090 0.2909 0.8649
vn -0.5318 -0.0259 0.8465
vn 0.4319 0.2465 -0.8676
vn -0.6064 -0.2545 0.7533
vn -0.4824 -0.1479 0.8633
vn -0.8570 0.1864 0.4804
vn 0.9762 -0.1646 -0.1412
vn -0.0700 0.9975 0.0029
vn 0.6100 -0.4001 0.6840
vn 0.6093 -0.3675 0.7026
vn -0.4611 -0.1087 -0.8807
vn 0.9612 0.2759 0.0058
vn 0.9913 0.1318 -0.0067
vn 0.4028 0.2686 0.8750
vn -0.4797 -0.8166 0.3210
vn -0.6022 -0.6005 -0.5261
vn -0.4841 -0.4426 0.7548
vn 0.7179 0.5955 -0.3604
vn 0.4974 0.0737 -0.8644
vn -0.5500 -0.2082 -0.8088
vn -0.4463 -0.2081 -0.8704
vn 0.4730 0.0318 -0.8805
vn 0.4264 0.2093 -0.8800
vn -0.4241 -0.2157 -0.8796
vn -0.8581 -0.5119 -0.0391
vn -0.9492 -0.3114 -0.0447
vn -0.4158 -0.2578 0.8721
vn -0.9780 0.2053 -0.0357
vn -0.9472 -0.3205 -0.0090
vn -0.9715 -0.2370 -0.0077
vn 0.9430 0.3328 0.0029
vn 0.5159 -0.0309 -0.8561
vn 0.4469 -0.0174 -0.8944
vn -0.8227 -0.5682 -0.0159
vn -0.4145 -0.3884 -0.8230
vn -0.5066 -0.0823 -0.8582
vn 0.6881 0.5185 0.5077
vn 0.4225 0.9024 -0.0848
vn -0.0346 0.5871 0.8088
vn 0.0197 0.7075 -0.7065
vn 0.6591 0.5755 -0.4842
vn 0.4022 0.3431 -0.8488
vn 0.4067 0.3568 -0.8410
vn 0.7363 -0.2302 -0.6363
vn -0.0000 -0.2120 -0.9773
vn -0.0000 -0.3982 -0.9173
vn -0.8437 -0.2549 -0.4724
vn 0.8234 -0.2299 0.5188
vn 0.9931 -0.0396 -0.1099
vn 0.7925 -0.0968 0.6022
vn -0.0000 -0.1014 0.9948
vn 0.8754 -0.0613 0.4795
vn 0.9962 0.0844 -0.0228
vn 0.8941 0.4422 -0.0714
vn -0.0000 -0.1283 0.9917
vn -0.0000 0.0061 1.0000
vn 0.5661 -0.0604 0.8221
vn 0.4461 -0.5664 0.6929
vn 0.4810 -0.5297 0.6986
vn 0.8423 -0.0763 0.5336
vn 0.9713 -0.2363 -0.0275
vn 0.5497 -0.5805 0.6007
vn -0.0007 -0.6448 0.7643
vn -0.0002 -0.9986 0.0525
vn 0.5341 -0.8454 0.0008
vn 0.6093 -0.1104 0.7852
vn -0.0000 -0.5003 0.8658
vn 0.5874 -0.1238 0.7997
vn -0.2414 0.6992 0.6729
vn 0.7335 0.0453 -0.6781
vn 0.3664 0.9115 -0.1870
vn -0.2777 -0.8414 0.4636
vn 0.4129 -0.8603 -0.2992
vn -0.7965 0.0201 -0.6043
vn 0.9753 -0.1682 0.1433
vn 0.8437 -0.2549 -0.4724
vn -0.0000 -0.7162 0.6979
vn -0.0000 -0.1343 0.9909
vn -0.8423 -0.0763 0.5336
vn -0.6093 -0.1104 0.7852
vn -0.5661 -0.0604 0.8221
vn 0.8032 -0.3068 0.5107
vn 0.7560 -0.0503 0.6526
vn 0.4576 0.8868 -0.0646
vn -0.4225 0.9024 -0.0848
vn 0.8211 -0.3943 0.4127
vn 0.3637 -0.2978 0.8826
vn -0.0000 -0.3844 0.9232
vn 0.2732 -0.3442 0.8983
vn 0.2494 -0.2941 0.9227
vn 0.3297 -0.3118 0.8911
vn -0.4022 0.3431 -0.8488
vn -0.6591 0.5755 -0.4842
vn -0.7363 -0.2302 -0.6363
vn -0.8234 -0.2299 0.5188
vn -0.7925 -0.0968 0.6022
vn -0.9931 -0.0396 -0.1099
vn -0.8941 0.4422 -0.0714
vn -0.4461 -0.5664 0.6929
vn -0.4810 -0.5297 0.6986
vn -0.9713 -0.2363 -0.0275
vn -0.5502 -0.5805 0.6002
vn -0.5345 -0.8452 0.0023
vn -0.5874 -0.1241 0.7997
vn 0.2414 0.6992 0.6729
vn -0.3664 0.9115 -0.1870
vn -0.7335 0.0453 -0.6781
vn 0.2777 -0.8414 0.4637
vn -0.4129 -0.8603 -0.2992
vn 0.7965 0.0201 -0.6043
vn -0.3297 -0.3118 0.8911
vn -0.2732 -0.3442 0.8983
vn -0.8032 -0.3068 0.5107
vn -0.7560 -0.0503 0.6526
vn -0.8208 -0.3944 0.4132
vn -0.3647 -0.2986 0.8820
vn -0.2494 -0.2941 0.9227
vn 0.2845 -0.5318 -0.7976
vn 0.3406 -0.6191 -0.7076
vn 0.7720 -0.6114 -0.1737
vn 0.7551 0.4114 0.5105
vn 0.8833 0.4688 0.0034
vn -0.0050 0.9985 0.0543
vn -0.0042 0.6796 0.7335
vn -0.0040 -0.8266 0.5628
vn -0.0071 -0.9992 -0.0405
vn 0.9158 -0.3999 -0.0372
vn 0.7679 -0.3333 0.5471
vn -0.7426 0.4142 0.5262
vn -0.8911 0.4512 0.0481
vn -0.7614 -0.3245 0.5612
vn -0.9211 -0.3893 0.0038
vn -0.0000 -0.5165 -0.8563
vn -0.2845 -0.5318 -0.7976
vn -0.3406 -0.6191 -0.7076
vn -0.0000 -0.6724 -0.7402
vn -0.0004 -0.7104 0.7038
vn -0.7900 0.1122 -0.6027
vn -0.0000 0.0301 -0.9995
vn -0.0000 0.0234 0.9997
vn -0.0000 -0.0045 1.0000
vn -0.7796 -0.6019 -0.1730
vn -0.7720 -0.6114 -0.1737
vn 0.5204 -0.7395 0.4271
vn -0.5204 -0.7394 0.4273
vn -0.6026 -0.6093 0.5154
vn 0.6026 -0.6093 0.5154
vn 0.0848 -0.5927 0.8009
vn 0.6410 -0.5302 0.5550
vn -0.6657 -0.5359 0.5193
vn -0.6421 -0.5977 -0.4800
vn 0.6700 -0.5850 -0.4569
vn -0.9692 -0.2210 0.1088
vn 0.9635 -0.2331 0.1317
vn 0.6716 -0.7374 -0.0723
vn -0.6747 -0.7345 -0.0732
vn 0.8708 0.4586 0.1769
vn -0.0075 0.6876 0.7260
vn 0.0010 0.8865 0.4627
vn -0.8694 0.4715 0.1476
vn -0.7984 0.0932 -0.5949
vn 0.0094 0.0874 -0.9961
vn 0.0081 -0.5746 -0.8184
vn -0.6788 -0.5981 0.4260
vn -0.7493 0.5264 0.4019
vn 0.6589 -0.5882 0.4688
vn 0.7908 0.0743 -0.6075
vn -0.0493 -0.6276 0.7770
vn 0.7234 0.5208 0.4533
vn -0.6777 -0.5309 -0.5088
vn -0.7899 0.2264 -0.5699
vn 0.0150 0.2513 -0.9678
vn 0.0112 -0.5014 -0.8651
vn 0.7708 0.2176 -0.5987
vn 0.6536 -0.5454 -0.5248
vn 0.9187 0.2245 0.3251
vn 0.8208 -0.5020 0.2725
vn -0.0369 0.7206 0.6923
vn -0.9268 0.3579 0.1142
vn 0.9515 0.2952 0.0866
vn -0.0265 0.1673 0.9855
vn 0.2791 -0.6789 0.6791
vn -0.8083 -0.5162 0.2831
vn -0.9135 0.2143 0.3457
vn -0.3057 -0.6731 0.6734
vn -0.6421 -0.5302 0.5538
vn -0.6692 -0.5849 -0.4582
vn 0.6430 -0.5978 -0.4788
vn 0.6647 -0.5360 0.5205
vn 0.9690 -0.2211 0.1106
vn 0.6748 -0.7345 -0.0720
vn -0.6716 -0.7373 -0.0736
vn -0.9638 -0.2330 0.1299
vn -0.8711 0.4587 0.1753
vn -0.0018 0.8865 0.4627
vn 0.0062 0.6876 0.7261
vn 0.8692 0.4714 0.1492
vn 0.7995 0.0932 -0.5934
vn -0.0067 -0.5746 -0.8184
vn -0.0075 0.0875 -0.9961
vn 0.6779 -0.5982 0.4273
vn 0.7486 0.5263 0.4033
vn -0.6599 -0.5882 0.4676
vn -0.7897 0.0744 -0.6090
vn 0.0478 -0.6276 0.7770
vn -0.7242 0.5209 0.4520
vn 0.6786 -0.5309 -0.5075
vn -0.0097 -0.5014 -0.8652
vn -0.0132 0.2513 -0.9678
vn 0.7910 0.2263 -0.5684
vn -0.6526 -0.5453 -0.5261
vn -0.7697 0.2177 -0.6001
vn -0.8214 -0.5019 0.2710
vn -0.9193 0.2245 0.3234
vn 0.0357 0.7206 0.6924
vn 0.9266 0.3577 0.1160
vn -0.9516 0.2953 0.0849
vn -0.2804 -0.6789 0.6785
vn 0.0246 0.1673 0.9856
vn 0.8078 -0.5163 0.2846
vn 0.9129 0.2141 0.3474
vn 0.3044 -0.6732 0.6740
vn 0.0918 0.8262 0.5559
vn -0.7683 0.4082 0.4929
vn 0.2291 0.1152 0.9666
vn 0.3138 0.6557 0.6867
vn -0.4923 0.8374 0.2374
vn -0.3393 -0.4741 0.8125
vn -0.6096 -0.3441 0.7142
vn -0.1040 0.6484 0.7542
vn 0.3522 0.8355 -0.4218
vn 0.7344 0.6737 0.0817
vn 0.8706 -0.4741 -0.1315
vn 0.7550 -0.2608 -0.6017
vn 0.1855 -0.9821 0.0317
vn -0.2614 0.8359 0.4827
vn -0.1190 0.8741 0.4709
vn 0.3694 0.7720 0.5172
vn -0.1159 0.8742 0.4716
vn -0.5723 0.7596 0.3090
vn 0.8833 0.3795 0.2752
vn 0.1888 0.9430 0.2742
vn 0.9869 0.1107 0.1171
vn 0.9899 0.0923 0.1072
vn 0.9861 0.1186 0.1161
vn 0.7500 0.6020 -0.2741
vn -0.0379 0.9812 -0.1890
vn 0.8872 0.4572 0.0622
vn -0.7968 0.6028 0.0421
vn 0.3712 0.9075 0.1967
vn -0.6802 0.7330 -0.0088
vn -0.1237 0.0810 0.9890
vn 0.3504 0.2813 -0.8934
vn 0.9871 -0.1572 -0.0284
vn -0.9948 0.0926 -0.0418
vn -0.9916 0.0418 0.1222
vn -0.8253 -0.0166 0.5645
vn -0.0000 -0.5042 0.8636
vn 1.0000 -0.0000 -0.0000
vn 0.1717 0.8053 0.5674
vn -0.8351 0.5463 -0.0649
vn -0.2632 -0.1474 0.9534
vn 0.3139 0.7047 -0.6363
vn 0.9893 -0.0516 0.1363
vn 0.7113 -0.0684 0.6996
vn 0.7064 -0.0801 0.7033
vn 0.1555 0.2602 0.9529
vn 0.1107 0.3114 0.9438
vn -0.3092 0.6732 0.6717
vn 0.7127 0.6481 -0.2685
vn -0.7127 0.6481 -0.2685
vn 0.8157 0.2954 -0.4975
vn -0.8157 0.2954 -0.4975
vn 0.4461 0.6297 0.6360
vn 0.3430 0.6901 -0.6373
vn 0.0531 0.3399 0.9390
vn 0.7967 0.5962 -0.0995
vn -0.0000 0.7565 -0.6540
vn -0.3430 0.6901 -0.6373
vn -0.7967 0.5962 -0.0995
vn -0.4461 0.6297 0.6360
vn 0.0197 0.9789 -0.2034
vn 0.9714 0.2324 0.0479
vn 0.9820 0.0301 -0.1866
vn 0.0208 0.4496 -0.8930
vn -0.9691 0.2413 0.0510
vn -0.9812 0.0283 -0.1910
vn 0.0210 -0.7561 0.6541
vn 0.0275 -0.4226 0.9059
vn 0.0066 -1.0000 -0.0063
vn 0.0229 0.9997 -0.0000
vn 0.9999 0.0168 -0.0001
vn -0.9999 0.0163 -0.0000
vn 0.0237 -0.9997 -0.0001
vn 0.2239 -0.1303 0.9659
vt 0.563941 0.283804
vt 0.563941 0.283804
vt 0.497326 0.283804
vt 0.563941 0.202822
vt 0.497326 0.202830
vt 0.896852 0.975234
vt 0.841737 0.834927
vt 0.770013 0.970445
vt 0.844118 0.975234
vt 0.736696 0.975234
vt 0.872830 0.904958
vt 0.765922 0.989810
vt 0.732374 0.860115
vt 0.434387 0.811316
vt 0.500701 0.816587
vt 0.439556 0.869240
vt 0.176016 0.739782
vt 0.206684 0.801665
vt 0.182357 0.805107
vt 0.211308 0.932448
vt 0.192732 0.991066
vt 0.193913 0.931109
vt 0.453151 0.739780
vt 0.457957 0.739780
vt 0.506923 0.741733
vt 0.298463 0.928874
vt 0.497093 0.987244
vt 0.439281 0.982294
vt 0.437873 0.982318
vt 0.437666 0.922792
vt 0.088705 0.868419
vt 0.088691 0.920845
vt 0.018358 0.868800
vt 0.077467 0.951208
vt 0.018350 0.991037
vt 0.189204 0.868584
vt 0.300160 0.868248
vt 0.176686 0.929720
vt 0.288895 0.806896
vt 0.069683 0.783372
vt 0.291313 0.868275
vt 0.283984 0.777108
vt 0.271986 0.990939
vt 0.135381 0.926498
vt 0.018374 0.739782
vt 0.084883 0.816029
vt 0.273536 0.991014
vt 0.533758 0.747775
vt 0.533719 0.816705
vt 0.533771 0.747754
vt 0.494054 0.869213
vt 0.548409 0.869288
vt 0.548403 0.990484
vt 0.277831 0.739782
vt 0.283984 0.777107
vt 0.440265 0.786650
vt 0.277831 0.739780
vt 0.434387 0.811316
vt 0.440272 0.786650
vt 0.004654 0.178982
vt 0.161134 0.260903
vt 0.184425 0.177823
vt 0.332530 0.259635
vt 0.461226 0.263630
vt 0.461226 0.194450
vt 0.366464 0.200171
vt 0.697541 0.115747
vt 0.622157 0.112048
vt 0.691378 0.174248
vt 0.639425 0.118582
vt 0.634657 0.141911
vt 0.636170 0.118372
vt 0.282551 0.317670
vt 0.300118 0.353126
vt 0.388360 0.346842
vt 0.460866 0.334058
vt 0.641746 0.118731
vt 0.636161 0.118372
vt 0.364627 0.357865
vt 0.152332 0.354477
vt 0.243706 0.260407
vt 0.004654 0.258569
vt 0.086668 0.332561
vt 0.004654 0.318057
vt 0.766467 0.172694
vt 0.277959 0.252409
vt 0.207084 0.342326
vt 0.550580 0.158338
vt 0.488263 0.062822
vt 0.482462 0.114159
vt 0.121761 0.364015
vt 0.246322 0.668013
vt 0.176505 0.662828
vt 0.187253 0.572566
vt 0.261262 0.711044
vt 0.363187 0.711021
vt 0.379379 0.681562
vt 0.247357 0.679930
vt 0.189642 0.421402
vt 0.189230 0.421282
vt 0.070786 0.386557
vt 0.073078 0.387228
vt 0.376650 0.527609
vt 0.374886 0.481812
vt 0.255477 0.503478
vt 0.254473 0.555888
vt 0.062355 0.545188
vt 0.191718 0.557399
vt 0.193048 0.484261
vt 0.063788 0.469060
vt 0.378415 0.529953
vt 0.253468 0.558692
vt 0.198783 0.572721
vt 0.225044 0.578209
vt 0.059510 0.589743
vt 0.040853 0.579513
vt 0.058609 0.507881
vt 0.026458 0.591552
vt 0.068172 0.658077
vt 0.127181 0.727928
vt 0.124697 0.666943
vt 0.013858 0.555964
vt 0.038393 0.525137
vt 0.061659 0.567830
vt 0.189602 0.578209
vt 0.176068 0.668013
vt 0.710868 0.123760
vt 0.774002 0.127234
vt 0.771945 0.120321
vt 0.115241 0.008703
vt 0.126687 0.082966
vt 0.265167 0.008809
vt 0.207090 0.342323
vt 0.259431 0.730942
vt 0.367099 0.730807
vt 0.379567 0.730776
vt 0.212632 0.727908
vt 0.169958 0.727913
vt 0.081266 0.727946
vt 0.637906 0.143455
vt 0.680462 0.120286
vt 0.680463 0.120284
vt 0.583050 0.101285
vt 0.017206 0.556539
vt 0.008594 0.588002
vt 0.030877 0.490829
vt 0.461226 0.093200
vt 0.381437 0.093895
vt 0.274896 0.178789
vt 0.265034 0.174643
vt 0.293677 0.174643
vt 0.150818 0.113106
vt 0.290098 0.174643
vt 0.160925 0.129812
vt 0.004654 0.126254
vt 0.381438 0.065988
vt 0.381438 0.028244
vt 0.461226 0.028245
vt 0.265344 0.099224
vt 0.265167 0.008809
vt 0.381438 0.065888
vt 0.265344 0.099224
vt 0.290098 0.174643
vt 0.461226 0.093196
vt 0.461226 0.073934
vt 0.597527 0.168866
vt 0.626320 0.171810
vt 0.597527 0.168866
vt 0.047522 0.527483
vt 0.055205 0.467544
vt 0.064320 0.548505
vt 0.199078 0.467867
vt 0.191885 0.475551
vt 0.198561 0.465000
vt 0.065499 0.448586
vt 0.065630 0.445184
vt 0.065970 0.456516
vt 0.064010 0.464462
vt 0.192903 0.480081
vt 0.190692 0.416524
vt 0.067946 0.383217
vt 0.063052 0.472940
vt 0.064613 0.477978
vt 0.374358 0.476777
vt 0.373830 0.405335
vt 0.257983 0.428520
vt 0.256730 0.499202
vt 0.067946 0.385170
vt 0.067327 0.435053
vt 0.554139 0.152084
vt 0.776351 0.143851
vt 0.691377 0.174248
vt 0.758758 0.157184
vt 0.700908 0.061825
vt 0.779842 0.087296
vt 0.626320 0.171810
vt 0.637752 0.094364
vt 0.620241 0.037317
vt 0.589186 0.002915
vt 0.763811 0.092979
vt 0.682198 0.080407
vt 0.640156 0.093272
vt 0.678916 0.155679
vt 0.710872 0.123759
vt 0.704933 0.156432
vt 0.168591 0.727908
vt 0.161798 0.727911
vt 0.725718 0.088667
vt 0.708285 0.086693
vt 0.595967 0.161587
vt 0.595967 0.161587
vt 0.626320 0.171810
vt 0.625949 0.112234
vt 0.774010 0.127234
vt 0.382720 0.730768
vt 0.380099 0.709273
vt 0.771508 0.132147
vt 0.217804 0.557399
vt 0.197715 0.556693
vt 0.193546 0.491059
vt 0.207465 0.486984
vt 0.190223 0.460044
vt 0.190692 0.421407
vt 0.063786 0.469068
vt 0.193048 0.484262
vt 0.036309 0.460913
vt 0.035560 0.462495
vt 0.030018 0.490394
vt 0.095089 0.368553
vt 0.121761 0.339601
vt 0.364639 0.357861
vt 0.407995 0.369690
vt 0.694355 0.920668
vt 0.878296 0.982405
vt 0.772588 0.983674
vt 0.968256 0.931195
vt 0.881348 0.922738
vt 0.912927 0.773459
vt 0.990704 0.784283
vt 0.878294 0.982405
vt 0.909539 0.701099
vt 0.990719 0.683398
vt 0.990739 0.613279
vt 0.908950 0.624922
vt 0.730527 0.742428
vt 0.847721 0.710301
vt 0.698346 0.799369
vt 0.575323 0.930940
vt 0.564152 0.859831
vt 0.703633 0.857379
vt 0.845514 0.776583
vt 0.641625 0.931013
vt 0.836130 0.904880
vt 0.564152 0.765553
vt 0.564152 0.732241
vt 0.589896 0.728320
vt 0.663548 0.761574
vt 0.663741 0.759891
vt 0.708480 0.699211
vt 0.828835 0.639326
vt 0.646165 0.511872
vt 0.564153 0.498347
vt 0.564153 0.469457
vt 0.656321 0.488127
vt 0.615691 0.650551
vt 0.564152 0.617789
vt 0.649800 0.598050
vt 0.476131 0.507062
vt 0.388697 0.459363
vt 0.414673 0.520812
vt 0.478827 0.400199
vt 0.421745 0.393394
vt 0.474343 0.431829
vt 0.463941 0.448161
vt 0.471914 0.472008
vt 0.471910 0.472005
vt 0.473026 0.450997
vt 0.474421 0.431983
vt 0.854867 0.637533
vt 0.847293 0.538762
vt 0.564152 0.645166
vt 0.564152 0.656517
vt 0.564152 0.645182
vt 0.703955 0.593665
vt 0.715030 0.676848
vt 0.703955 0.593664
vt 0.715030 0.676848
vt 0.694355 0.920668
vt 0.957546 0.981416
vt 0.564152 0.732240
vt 0.687276 0.557145
vt 0.594388 0.550269
vt 0.564153 0.549607
vt 0.563994 0.589593
vt 0.563993 0.560152
vt 0.563994 0.600217
vt 0.563994 0.600217
vt 0.563994 0.600233
vt 0.563994 0.589594
vt 0.563994 0.560155
vt 0.563994 0.600233
vt 0.564153 0.549603
vt 0.562625 0.384443
vt 0.562646 0.374425
vt 0.551349 0.700370
vt 0.490453 0.649540
vt 0.473625 0.656682
vt 0.473084 0.733505
vt 0.473094 0.537168
vt 0.473619 0.614624
vt 0.483291 0.627522
vt 0.525451 0.597999
vt 0.396225 0.700367
vt 0.457092 0.649539
vt 0.422024 0.597992
vt 0.464000 0.627521
vt 0.549286 0.695171
vt 0.472301 0.731552
vt 0.472312 0.534490
vt 0.522260 0.599202
vt 0.396859 0.695168
vt 0.423778 0.599194
vt 0.562646 0.361607
vt 0.578965 0.442368
vt 0.927441 0.507820
vt 0.990757 0.507863
vt 0.814558 0.551656
vt 0.687284 0.557111
vt 0.744564 0.489163
vt 0.615690 0.650538
vt 0.460798 0.370162
vt 0.460841 0.334058
vt 0.124559 0.368759
vt 0.004654 0.354780
vt 0.004654 0.083305
vt 0.004654 0.126254
vt 0.126687 0.082966
vt 0.004653 0.008703
vt 0.548415 0.922510
vt 0.548516 0.749546
vt 0.562626 0.394592
vt 0.562624 0.407555
vt 0.847393 0.210312
vt 0.847399 0.210312
vt 0.930886 0.210312
vt 0.930690 0.210312
vt 0.825681 0.208683
vt 0.823820 0.208237
vt 0.823820 0.208237
vt 0.752676 0.280512
vt 0.779548 0.387694
vt 0.743973 0.336967
vt 0.752676 0.280510
vt 0.946033 0.379566
vt 0.989223 0.380210
vt 0.989090 0.214445
vt 0.942353 0.214454
vt 0.645518 0.216989
vt 0.644421 0.240077
vt 0.766706 0.216989
vt 0.864146 0.214389
vt 0.981442 0.210312
vt 0.966460 0.210312
vt 0.966423 0.210312
vt 0.861537 0.210312
vt 0.875463 0.210312
vt 0.942359 0.214454
vt 0.946033 0.379569
vt 0.864173 0.214388
vt 0.802416 0.210312
vt 0.644401 0.240078
vt 0.645436 0.216989
vt 0.766706 0.216989
vt 0.858247 0.210939
vt 0.858248 0.210939
vt 0.858247 0.209082
vt 0.685083 0.326022
vt 0.685179 0.431162
vt 0.640162 0.431163
vt 0.641373 0.303488
vt 0.598642 0.431162
vt 0.598564 0.304495
vt 0.580267 0.431161
vt 0.580094 0.307365
vt 0.582823 0.270110
vt 0.810580 0.364212
vt 0.582839 0.270126
vt 0.582292 0.216989
vt 0.864151 0.214389
vt 0.864154 0.214388
vt 0.864151 0.214389
vt 0.640165 0.431163
vt 0.614220 0.303553
vt 0.701840 0.338675
vt 0.701803 0.431161
vt 0.665777 0.314326
vt 0.682120 0.214059
vt 0.682123 0.214073
vt 0.682049 0.214024
vt 0.620730 0.366808
vt 0.620736 0.366774
vt 0.620963 0.366881
vt 0.620765 0.366776
vt 0.620978 0.371621
vt 0.620945 0.371604
vt 0.620944 0.371601
vt 0.620940 0.371602
vt 0.620461 0.370877
vt 0.620462 0.370874
vt 0.620458 0.370876
vt 0.548519 0.816758
vt 0.768316 0.923878
vt 0.720832 0.919616
vt 0.772746 0.855673
vt 0.684499 0.989809
vt 0.779874 0.988566
vt 0.684292 0.988594
vt 0.688692 0.985137
vt 0.580986 0.994431
vt 0.589013 0.929758
vt 0.680664 0.921849
vt 0.684435 0.988583
vt 0.779529 0.988555
vt 0.768715 0.923917
vt 0.721195 0.919652
vt 0.765423 0.893082
vt 0.888174 0.904938
vt 0.878180 0.837749
vt 0.795915 0.829758
vt 0.637757 0.871452
vt 0.899147 0.677034
vt 0.748504 0.925596
vt 0.631921 0.930940
vt 0.699264 0.989809
vt 0.766831 0.928252
vt 0.708205 0.930940
vt 0.778164 0.986398
vt 0.824788 0.925596
vt 0.683873 0.958309
vt 0.740865 0.990382
vt 0.750012 0.945253
vt 0.747250 0.951549
vt 0.769197 0.910307
vt 0.647419 0.962584
vt 0.699333 0.898642
vt 0.691134 0.953276
vt 0.673978 0.984805
vt 0.682149 0.994474
vt 0.694367 0.920674
vt 0.836130 0.904880
vt 0.752428 0.940549
vt 0.921949 0.765064
vt 0.904245 0.774297
vt 0.906281 0.701525
vt 0.974599 0.950412
vt 0.996160 0.842834
vt 0.948053 0.903345
vt 0.894623 0.834755
vt 0.884194 0.914196
vt 0.909911 0.785227
vt 0.504598 0.264459
vt 0.504598 0.264460
vt 0.504250 0.264459
vt 0.543677 0.391817
vt 0.503978 0.450035
vt 0.503957 0.334295
vt 0.504239 0.264460
vt 0.543679 0.391860
vt 0.503978 0.450024
vt 0.503957 0.334225
vt 0.566981 0.278848
vt 0.566981 0.250877
vt 0.496456 0.250973
vt 0.496455 0.278844
vt 0.496456 0.449264
vt 0.566983 0.449249
vt 0.566983 0.392210
vt 0.496456 0.392210
vt 0.496456 0.392209
vt 0.566983 0.392209
vt 0.566983 0.334598
vt 0.496456 0.334599
vt 0.496456 0.276712
vt 0.496456 0.200685
vt 0.566985 0.200655
vt 0.566985 0.276695
vt 0.496460 0.392109
vt 0.496460 0.334566
vt 0.566989 0.334566
vt 0.566990 0.392109
vt 0.496456 0.280127
vt 0.566985 0.280111
vt 0.566985 0.206110
vt 0.496456 0.206139
vt 0.496457 0.449189
vt 0.496457 0.392109
vt 0.566987 0.392109
vt 0.566987 0.449175
vt 0.774095 0.956222
vt 0.702562 0.954105
vt 0.684678 0.953493
vt 0.585000 0.962095
vt 0.702815 0.954118
vt 0.774122 0.956236
vt 0.780669 0.861420
vt 0.536792 0.668251
vt 0.484313 0.668267
vt 0.494344 0.649330
vt 0.533619 0.650493
vt 0.486729 0.666369
vt 0.427593 0.671472
vt 0.429797 0.653718
vt 0.484525 0.648995
vt 0.417986 0.674120
vt 0.470197 0.674105
vt 0.467228 0.656360
vt 0.428077 0.655197
vt 0.425428 0.637310
vt 0.469217 0.643820
vt 0.467434 0.625375
vt 0.430866 0.619926
vt 0.883177 0.871344
vt 0.496456 0.202502
vt 0.566985 0.202532
vt 0.566985 0.320860
vt 0.496456 0.320830
s 0
usemtl Texture01.png
f 1/1/1 4/2/1 7/3/1 8/3/1
f 3/4/2 2/4/2 6/5/2 5/5/2
f 2/4/3 1/1/3 8/3/3 6/5/3
f 4/2/4 3/4/4 5/5/4 7/3/4
s 1
f 10/6/5 12/7/6 11/8/7
f 10/9/5 13/10/8 12/7/6
f 19/11/9 18/12/9 17/13/9
f 23/14/10 24/15/11 22/16/12
f 28/17/13 40/18/14 31/19/15
f 27/20/16 28/21/13 39/22/17
f 20/23/18 81/24/19 80/25/20
f 28/21/13 27/20/16 38/26/21
f 82/27/22 81/28/19 20/29/18
f 82/27/22 20/29/18 21/30/23
f 34/31/24 41/32/25 43/33/26
f 33/34/27 32/35/28 43/33/26
f 38/26/21 27/20/16 25/36/29
f 37/37/30 22/16/12 21/30/23
f 39/22/17 28/21/13 30/38/31
f 25/36/29 27/20/16 39/22/17
f 40/18/14 26/39/32 25/36/29
f 25/36/29 39/22/17 30/38/31
f 31/19/15 40/18/14 25/36/29
f 28/17/13 31/19/15 42/40/33
f 26/39/32 45/41/34 25/36/29
f 26/39/32 23/14/10 22/16/12
f 40/18/14 28/17/13 49/42/35
f 20/29/18 36/43/36 38/26/21
f 21/30/23 20/29/18 38/26/21
f 41/32/25 29/44/37 33/34/27
f 32/35/28 33/34/27 28/21/13
f 32/45/28 28/17/13 42/40/33
f 28/21/13 29/44/37 30/38/31
f 42/40/33 31/19/15 35/46/38
f 33/34/27 29/44/37 28/21/13
f 34/31/24 25/36/29 41/32/25
f 34/31/24 35/46/38 25/36/29
f 29/44/37 25/36/29 30/38/31
f 25/36/29 29/44/37 41/32/25
f 35/46/38 31/19/15 25/36/29
f 35/46/38 34/31/24 43/33/26
f 32/45/28 42/40/33 43/33/26
f 41/32/25 33/34/27 43/33/26
f 42/40/33 35/46/38 43/33/26
f 45/41/34 38/26/21 25/36/29
f 36/47/36 28/21/13 38/26/21
f 37/37/30 38/26/21 45/41/34
f 37/37/30 45/41/34 26/39/32
f 24/15/11 84/48/39 47/49/40
f 84/50/39 24/15/11 80/25/20
f 24/15/11 47/49/40 46/51/41
f 46/51/41 22/16/12 24/15/11
f 46/51/41 47/49/40 48/52/42
f 83/53/43 82/27/22 21/30/23
f 21/30/23 22/16/12 46/51/41
f 40/18/14 49/42/35 26/39/32
f 28/17/13 36/54/36 49/42/35
f 26/39/32 49/55/35 23/14/10
f 20/23/18 50/56/44 49/55/35
f 37/37/30 26/39/32 22/16/12
f 36/57/36 20/23/18 49/55/35
f 50/56/44 23/58/10 49/55/35
f 80/25/20 24/15/11 50/59/44
f 20/23/18 80/25/20 50/56/44
f 24/15/11 23/14/10 50/59/44
f 54/14/45 53/16/46 55/15/47
f 59/17/48 62/19/49 71/18/50
f 58/20/51 70/22/52 59/21/48
f 51/23/53 80/25/20 81/24/19
f 59/21/48 69/26/54 58/20/51
f 82/27/22 51/29/53 81/28/19
f 82/27/22 52/30/55 51/29/53
f 65/31/56 74/33/57 72/32/58
f 64/34/59 74/33/57 63/35/60
f 69/26/54 56/36/61 58/20/51
f 53/16/46 68/37/62 52/30/55
f 70/22/52 61/38/63 59/21/48
f 56/36/61 70/22/52 58/20/51
f 71/18/50 56/36/61 57/39/64
f 56/36/61 61/38/63 70/22/52
f 62/19/49 56/36/61 71/18/50
f 59/17/48 73/40/65 62/19/49
f 57/39/64 56/36/61 75/41/66
f 57/39/64 53/16/46 54/14/45
f 71/18/50 78/42/67 59/17/48
f 38/26/21 37/37/30 21/30/23
f 51/29/53 69/26/54 67/43/68
f 52/30/55 69/26/54 51/29/53
f 72/32/58 64/34/59 60/44/69
f 63/35/60 59/21/48 64/34/59
f 63/45/60 73/40/65 59/17/48
f 59/21/48 61/38/63 60/44/69
f 73/40/65 66/46/70 62/19/49
f 64/34/59 59/21/48 60/44/69
f 65/31/56 72/32/58 56/36/61
f 65/31/56 56/36/61 66/46/70
f 60/44/69 61/38/63 56/36/61
f 56/36/61 72/32/58 60/44/69
f 66/46/70 56/36/61 62/19/49
f 66/46/70 74/33/57 65/31/56
f 63/45/60 74/33/57 73/40/65
f 72/32/58 74/33/57 64/34/59
f 73/40/65 74/33/57 66/46/70
f 75/41/66 56/36/61 69/26/54
f 67/47/68 69/26/54 59/21/48
f 68/37/62 75/41/66 69/26/54
f 68/37/62 57/39/64 75/41/66
f 55/15/47 77/49/71 84/48/39
f 84/50/39 80/25/20 55/15/47
f 55/15/47 76/51/72 77/49/71
f 76/51/72 55/15/47 53/16/46
f 83/53/43 52/30/55 82/27/22
f 52/30/55 76/51/72 53/16/46
f 71/18/50 57/39/64 78/42/67
f 59/17/48 78/42/67 67/54/68
f 57/39/64 54/14/45 78/55/67
f 51/23/53 78/55/67 79/56/73
f 68/37/62 53/16/46 57/39/64
f 67/57/68 78/55/67 51/23/53
f 79/56/73 78/55/67 54/58/45
f 80/25/20 79/59/73 55/15/47
f 51/23/53 79/56/73 80/25/20
f 55/15/47 79/59/73 54/14/45
f 68/37/62 69/26/54 52/30/55
f 273/60/74 91/61/75 90/62/76
f 89/63/77 272/64/78 275/65/79 92/66/80
f 112/67/81 103/68/82 113/69/83
f 149/70/84 101/71/85 102/72/86
f 88/73/87 125/74/88 110/75/89
f 271/76/90 88/73/87 110/75/89
f 101/71/85 148/77/91 104/78/92
f 110/75/89 125/74/88 98/79/93
f 91/61/75 125/80/88 123/81/94
f 274/82/95 111/83/96 91/61/75
f 111/83/96 274/82/95 278/84/97
f 101/85/85 112/67/81 113/69/83
f 88/73/87 271/76/90 89/63/77
f 88/73/87 89/63/77 122/86/98
f 88/73/87 122/86/98 95/87/99
f 115/88/100 123/89/94 95/90/99
f 92/66/80 122/86/98 89/63/77
f 111/83/96 125/80/88 91/61/75
f 98/91/93 125/80/88 111/83/96
f 125/74/88 88/73/87 95/87/99
f 90/62/76 91/61/75 123/81/94
f 127/92/101 128/93/102 137/94/103
f 128/95/102 129/96/104 138/97/105 137/98/103
f 132/99/106 140/100/107 141/101/108 133/102/109
f 136/103/110 144/104/111 145/105/112 135/106/113
f 159/107/114 160/108/115 143/109/116 142/110/117
f 138/97/105 136/111/110 135/112/113 137/98/103
f 135/113/113 130/114/118 137/94/103
f 131/115/119 136/116/110 146/117/120
f 131/115/119 146/117/120 126/118/121
f 126/119/121 106/120/122 147/121/123
f 136/116/110 138/122/105 180/123/124
f 131/124/119 147/121/123 130/125/118
f 130/125/118 147/121/123 127/126/101
f 171/127/125 166/127/126 108/128/127 178/129/128
f 147/121/123 106/120/122 127/126/101
f 126/119/121 147/121/123 131/124/119
f 99/130/129 152/131/130 100/132/131
f 123/81/94 125/80/88 95/133/99
f 109/134/132 129/96/104 128/95/102
f 109/135/132 178/136/128 129/96/104
f 128/93/102 107/137/133 109/138/132
f 108/139/127 106/120/122 126/119/121
f 155/140/134 120/141/135 148/77/91
f 166/127/126 171/127/125 169/141/136 120/141/135
f 119/142/137 155/140/134 149/70/84
f 167/68/138 170/143/139 103/68/82
f 126/118/121 138/144/105 129/145/104
f 138/144/105 146/117/120 139/146/140
f 126/118/121 146/117/120 138/144/105
f 276/147/141 94/148/142 92/66/80
f 276/147/141 92/66/80 275/65/79
f 123/81/94 121/149/143 150/150/144
f 122/86/98 150/151/144 121/149/143
f 150/151/144 122/86/98 92/66/80
f 90/62/76 123/81/94 150/150/144
f 93/152/145 150/153/144 152/131/130
f 150/150/144 151/154/146 90/62/76
f 93/152/145 151/154/146 150/150/144
f 280/155/147 273/60/74 151/154/146
f 93/152/145 280/155/147 151/154/146
f 386/156/148 209/157/149 279/158/150
f 151/154/146 273/60/74 90/62/76
f 152/131/130 280/155/147 93/152/145
f 152/131/130 153/159/151 100/160/131
f 150/153/144 153/159/151 152/131/130
f 94/148/142 387/161/152 153/162/151
f 92/66/80 94/148/142 150/163/144
f 94/148/142 276/164/141 385/165/153 387/161/152
f 103/68/82 154/166/154 96/167/155
f 115/88/100 154/168/154 124/143/156
f 155/140/134 148/77/91 101/71/85
f 149/70/84 155/140/134 101/71/85
f 146/117/120 180/169/124 134/170/157
f 131/124/119 159/107/114 136/171/110
f 143/172/116 145/173/112 157/174/158
f 142/175/117 158/176/159 144/177/111
f 158/178/159 157/179/158 132/180/106 133/181/109
f 159/107/114 142/182/117 144/183/111 136/171/110
f 144/184/111 141/185/108 140/186/107 145/187/112
f 144/177/111 158/176/159 133/188/109 141/189/108
f 274/82/95 91/61/75 273/60/74
f 95/90/99 122/89/98 164/190/160
f 161/68/161 175/143/162 173/68/163
f 95/90/99 164/190/160 115/88/100
f 102/191/86 113/192/83 162/67/164
f 124/143/156 154/166/154 103/68/82
f 124/143/156 123/89/94 115/88/100
f 164/190/160 122/89/98 163/143/165
f 108/128/127 166/127/126 106/193/122
f 162/67/164 113/192/83 161/68/161
f 161/68/161 173/68/163 174/67/166 162/67/164
f 102/191/86 114/194/167 105/195/168
f 113/69/83 103/68/82 96/167/155
f 161/68/161 113/192/83 96/196/155
f 101/85/85 113/192/83 102/191/86
f 168/67/169 114/194/167 167/68/138
f 148/77/91 105/197/168 104/78/92
f 124/143/156 170/143/139 123/89/94
f 97/198/170 121/199/143 170/143/139
f 104/191/92 168/67/169 112/67/81
f 97/198/170 170/143/139 167/68/138
f 167/68/138 114/194/167 97/198/170
f 112/67/81 168/67/169 167/68/138 103/68/82
f 104/191/92 105/195/168 168/67/169
f 104/191/92 112/67/81 101/85/85
f 170/143/139 121/199/143 123/89/94
f 171/127/125 178/129/128 109/200/132
f 117/201/171 156/202/172 169/141/136
f 148/77/91 156/202/172 105/197/168
f 120/141/135 169/141/136 148/77/91
f 168/67/169 105/195/168 114/194/167
f 169/141/136 156/202/172 148/77/91
f 118/203/173 120/141/135 155/140/134
f 103/68/82 170/143/139 124/143/156
f 165/204/174 118/205/173 119/142/137
f 118/203/173 166/127/126 120/141/135
f 107/206/133 128/93/102 127/92/101 179/207/175
f 106/193/122 166/127/126 118/205/173
f 109/200/132 176/204/176 177/208/177
f 171/127/125 117/209/171 169/141/136
f 109/200/132 177/208/177 171/127/125
f 165/204/174 106/193/122 118/205/173
f 117/201/171 172/142/178 156/202/172
f 164/190/160 163/143/165 154/210/154
f 115/88/100 164/190/160 154/210/154
f 163/143/165 161/68/161 154/211/154
f 154/211/154 161/68/161 96/212/155
f 156/202/172 149/70/84 105/197/168
f 105/197/168 149/70/84 102/72/86
f 174/67/166 114/194/167 102/191/86
f 97/198/170 175/143/162 121/199/143
f 114/194/167 173/213/163 97/198/170
f 175/143/162 122/89/98 121/199/143
f 97/198/170 173/68/163 175/143/162
f 117/201/171 176/204/176 172/142/178
f 122/89/98 175/143/162 163/143/165
f 149/70/84 172/142/178 119/142/137
f 119/142/137 172/142/178 176/204/176 165/204/174
f 174/67/166 173/213/163 114/194/167
f 162/67/164 174/67/166 102/191/86
f 163/143/165 175/143/162 161/68/161
f 107/214/133 176/204/176 109/200/132
f 118/203/173 155/140/134 119/142/137
f 156/202/172 172/142/178 149/70/84
f 177/208/177 176/204/176 117/209/171
f 171/127/125 177/208/177 117/209/171
f 108/215/127 126/216/121 129/96/104 178/136/128
f 106/120/122 179/207/175 127/126/101
f 165/204/174 179/217/175 106/193/122
f 107/214/133 179/217/175 165/204/174 176/204/176
f 160/218/115 135/219/113 145/220/112 143/221/116
f 130/114/118 135/113/113 160/218/115
f 157/174/158 145/173/112 140/222/107 132/223/106
f 142/224/117 143/225/116 157/179/158 158/178/159
f 146/117/120 134/226/157 139/146/140
f 134/227/157 180/123/124 139/228/140
f 136/116/110 180/169/124 146/117/120
f 131/124/119 130/125/118 160/108/115 159/107/114
f 137/94/103 130/114/118 127/92/101
f 180/123/124 138/122/105 139/228/140
f 87/229/179 111/83/96 278/84/97
f 87/229/179 98/230/93 111/83/96
f 273/60/74 183/62/180 184/61/181
f 182/63/182 185/66/183 275/65/79 272/64/78
f 205/67/184 206/69/185 196/68/186
f 243/70/187 195/72/188 194/71/189
f 181/73/190 203/75/191 218/74/192
f 271/76/90 203/75/191 181/73/190
f 194/71/189 197/78/193 242/77/194
f 203/75/191 191/79/195 218/74/192
f 184/61/181 216/81/196 218/80/192
f 274/82/95 184/61/181 204/83/197
f 204/83/197 278/84/97 274/82/95
f 194/85/189 206/69/185 205/67/184
f 271/76/90 181/73/190 182/63/182
f 181/73/190 215/86/198 182/63/182
f 181/73/190 188/87/199 215/86/198
f 208/88/200 188/90/199 216/89/196
f 185/66/183 182/63/182 215/86/198
f 187/148/201 247/162/202 386/156/148
f 204/83/197 184/61/181 218/80/192
f 191/91/195 204/83/197 218/80/192
f 218/74/192 188/87/199 181/73/190
f 183/62/180 216/81/196 184/61/181
f 220/92/203 230/94/204 221/93/205
f 221/95/205 230/98/204 231/97/206 222/96/207
f 225/99/208 226/102/209 234/101/210 233/100/211
f 229/103/212 228/106/213 238/105/214 237/104/215
f 253/107/216 235/110/217 236/109/218 254/108/219
f 231/97/206 230/98/204 228/112/213 229/111/212
f 228/113/213 230/94/204 223/114/220
f 224/115/221 239/117/222 229/116/212
f 224/115/221 219/118/223 239/117/222
f 219/119/223 240/121/224 199/120/225
f 229/116/212 284/123/226 231/122/206
f 224/124/221 223/125/220 240/121/224
f 223/125/220 220/126/203 240/121/224
f 265/127/227 282/129/228 201/128/229 260/127/230
f 240/121/224 220/126/203 199/120/225
f 219/119/223 224/124/221 240/121/224
f 191/231/195 203/75/191 241/232/231
f 192/130/232 193/132/233 246/131/234
f 216/81/196 188/133/199 218/80/192
f 202/134/235 221/95/205 222/96/207
f 202/135/235 222/96/207 282/136/228
f 221/93/205 202/138/235 200/137/236
f 201/139/229 219/119/223 199/120/225
f 249/140/237 242/77/194 213/141/238
f 260/127/230 213/141/238 263/141/239 265/127/227
f 212/142/240 243/70/187 249/140/237
f 261/68/241 196/68/186 264/143/242
f 219/118/223 222/145/207 231/144/206
f 231/144/206 232/146/243 239/117/222
f 219/118/223 231/144/206 239/117/222
f 276/147/141 185/66/183 187/148/201
f 276/147/141 275/65/79 185/66/183
f 216/81/196 244/150/244 214/149/245
f 215/86/198 214/149/245 244/151/244
f 244/151/244 185/66/183 215/86/198
f 183/62/180 244/150/244 216/81/196
f 186/152/246 246/131/234 244/153/244
f 244/150/244 183/62/180 245/154/247
f 186/152/246 244/150/244 245/154/247
f 280/155/147 245/154/247 273/60/74
f 186/152/246 245/154/247 280/155/147
f 245/154/247 183/62/180 273/60/74
f 246/131/234 186/152/246 280/155/147
f 246/131/234 193/160/233 247/159/202
f 244/153/244 246/131/234 247/159/202
f 187/148/201 185/66/183 244/163/244
f 387/161/152 116/157/248 100/132/131
f 196/68/186 189/167/249 248/166/250
f 208/88/200 217/143/251 248/168/250
f 249/140/237 194/71/189 242/77/194
f 243/70/187 194/71/189 249/140/237
f 239/117/222 227/170/252 284/169/226
f 224/124/221 229/171/212 253/107/216
f 236/172/218 251/174/253 238/173/214
f 235/175/217 237/177/215 252/176/254
f 252/178/254 226/181/209 225/180/208 251/179/253
f 253/107/216 229/171/212 237/183/215 235/182/217
f 237/184/215 238/187/214 233/186/211 234/185/210
f 237/177/215 234/189/210 226/188/209 252/176/254
f 274/82/95 273/60/74 184/61/181
f 188/90/199 258/190/255 215/89/198
f 255/68/256 267/68/257 269/143/258
f 188/90/199 208/88/200 258/190/255
f 195/191/188 256/67/259 206/192/185
f 217/143/251 196/68/186 248/166/250
f 217/143/251 208/88/200 216/89/196
f 258/190/255 257/143/260 215/89/198
f 201/128/229 199/193/225 260/127/230
f 256/67/259 255/68/256 206/192/185
f 255/68/256 256/67/259 268/67/261 267/68/257
f 195/191/188 198/195/262 207/194/263
f 206/69/185 189/167/249 196/68/186
f 255/68/256 189/196/249 206/192/185
f 194/85/189 195/191/188 206/192/185
f 262/67/264 261/68/241 207/194/263
f 242/77/194 197/78/193 198/197/262
f 217/143/251 216/89/196 264/143/242
f 190/198/265 264/143/242 214/199/245
f 197/191/193 205/67/184 262/67/264
f 190/198/265 261/68/241 264/143/242
f 261/68/241 190/198/265 207/194/263
f 205/67/184 196/68/186 261/68/241 262/67/264
f 197/191/193 262/67/264 198/195/262
f 197/191/193 194/85/189 205/67/184
f 264/143/242 216/89/196 214/199/245
f 265/127/227 202/200/235 282/129/228
f 210/201/266 263/141/239 250/202/267
f 242/77/194 198/197/262 250/202/267
f 213/141/238 242/77/194 263/141/239
f 262/67/264 207/194/263 198/195/262
f 263/141/239 242/77/194 250/202/267
f 211/203/268 249/140/237 213/141/238
f 196/68/186 217/143/251 264/143/242
f 259/204/269 212/142/240 211/205/268
f 211/203/268 213/141/238 260/127/230
f 200/206/236 283/207/270 220/92/203 221/93/205
f 199/193/225 211/205/268 260/127/230
f 202/200/235 281/208/271 270/204/272
f 265/127/227 263/141/239 210/209/266
f 202/200/235 265/127/227 281/208/271
f 259/204/269 211/205/268 199/193/225
f 210/201/266 250/202/267 266/142/273
f 258/190/255 248/210/250 257/143/260
f 208/88/200 248/210/250 258/190/255
f 257/143/260 248/211/250 255/68/256
f 248/211/250 189/212/249 255/68/256
f 250/202/267 198/197/262 243/70/187
f 198/197/262 195/72/188 243/70/187
f 268/67/261 195/191/188 207/194/263
f 190/198/265 214/199/245 269/143/258
f 207/194/263 190/198/265 267/213/257
f 269/143/258 214/199/245 215/89/198
f 190/198/265 269/143/258 267/68/257
f 210/201/266 266/142/273 270/204/272
f 215/89/198 257/143/260 269/143/258
f 243/70/187 212/142/240 266/142/273
f 212/142/240 259/204/269 270/204/272 266/142/273
f 268/67/261 207/194/263 267/213/257
f 256/67/259 195/191/188 268/67/261
f 257/143/260 255/68/256 269/143/258
f 200/214/236 202/200/235 270/204/272
f 211/203/268 212/142/240 249/140/237
f 250/202/267 243/70/187 266/142/273
f 281/208/271 210/209/266 270/204/272
f 265/127/227 210/209/266 281/208/271
f 201/215/229 282/136/228 222/96/207 219/216/223
f 199/120/225 220/126/203 283/207/270
f 259/204/269 199/193/225 283/217/270
f 200/214/236 270/204/272 259/204/269 283/217/270
f 254/218/219 236/221/218 238/220/214 228/219/213
f 223/114/220 254/218/219 228/113/213
f 251/174/253 225/223/208 233/222/211 238/173/214
f 235/224/217 252/178/254 251/179/253 236/225/218
f 239/117/222 232/146/243 227/226/252
f 227/227/252 232/228/243 284/123/226
f 229/116/212 239/117/222 284/169/226
f 224/124/221 253/107/216 254/108/219 223/125/220
f 230/94/204 220/92/203 223/114/220
f 284/123/226 232/228/243 231/122/206
f 287/233/274 286/234/275 347/235/276
f 353/236/277 294/237/278 295/238/279 354/239/280
f 286/240/275 294/237/278 353/236/277
f 295/238/279 296/241/281 355/242/282
f 355/242/282 356/243/283 330/244/284
f 304/245/285 292/246/286 289/247/287
f 287/233/274 347/248/276 348/249/288 288/250/289
f 292/246/286 296/241/281 295/238/279 298/251/290
f 288/252/289 298/251/290 299/253/291
f 295/238/279 294/237/278 298/251/290
f 294/237/278 286/240/275 299/253/291
f 349/254/292 350/255/293 302/256/294
f 289/247/287 349/254/292 303/257/295
f 303/257/295 302/256/294 301/258/296
f 289/247/287 298/251/290 288/250/289
f 304/245/285 301/258/296 290/259/297
f 303/257/295 301/258/296 304/245/285
f 289/247/287 303/257/295 304/245/285
f 304/245/285 290/259/297 291/260/298
f 293/261/299 352/262/300 359/263/301 305/264/302
f 286/240/275 287/233/274 299/253/291
f 349/254/292 302/256/294 303/257/295
f 300/265/303 357/266/304 307/267/305
f 292/246/286 304/245/285 291/260/298
f 310/268/306 313/269/307 309/270/308
f 308/271/309 311/272/310 313/269/307 310/268/306
f 310/273/306 312/274/311 308/275/309
f 311/276/310 312/274/311 313/277/307
f 313/277/307 312/274/311 309/278/308
f 308/275/309 312/274/311 311/276/310
f 309/278/308 312/274/311 310/273/306
f 288/250/289 348/249/288 349/254/292
f 291/279/298 285/280/312 297/244/313
f 297/244/313 296/241/281 291/279/298
f 296/241/281 292/246/286 291/279/298
f 360/281/314 357/266/304 300/265/303
f 351/282/315 360/283/314 300/265/303
f 323/259/316 332/265/317 334/256/318
f 306/284/319 314/285/320 300/265/303
f 306/284/319 300/265/303 307/267/305
f 306/286/319 291/260/298 314/287/320
f 287/288/274 288/250/289 299/253/291
f 346/289/321 286/240/275 353/236/277
f 292/246/286 298/251/290 289/247/287
f 346/289/321 321/240/322 347/236/276
f 350/290/293 351/282/315 302/256/294
f 289/247/287 288/250/289 349/254/292
f 291/260/298 290/259/297 314/287/320
f 314/285/320 290/259/297 300/265/303
f 293/261/299 305/264/302 315/291/323
f 307/267/305 293/261/299 315/291/323
f 306/284/319 307/267/305 315/291/323
f 319/292/324 358/293/325 352/262/300
f 318/294/326 316/295/327 307/267/305
f 317/296/328 318/294/326 307/267/305
f 307/267/305 357/266/304 317/297/328
f 293/261/299 307/267/305 319/292/324
f 316/295/327 358/293/325 319/292/324
f 307/267/305 316/295/327 319/292/324
f 293/261/299 319/292/324 352/262/300
f 353/236/277 354/239/280 328/238/329 327/237/330
f 321/240/322 353/236/277 327/237/330
f 355/242/282 329/241/331 328/238/329
f 329/241/331 355/242/282 330/244/284
f 336/245/332 322/247/333 325/246/334
f 327/237/330 331/253/335 321/240/322
f 349/254/292 334/256/318 350/255/293
f 322/247/333 335/257/336 349/254/292
f 335/257/336 333/258/337 334/256/318
f 336/245/332 323/259/316 333/258/337
f 335/257/336 336/245/332 333/258/337
f 322/247/333 336/245/332 335/257/336
f 336/245/332 324/260/338 323/259/316
f 326/261/339 337/264/340 359/263/301 352/262/300
f 349/254/292 335/257/336 334/256/318
f 332/265/317 339/267/341 357/266/304
f 325/246/334 324/260/338 336/245/332
f 342/268/342 341/270/343 345/269/344
f 340/271/345 342/268/342 345/269/344 343/272/346
f 342/273/342 340/275/345 344/274/347
f 343/276/346 345/277/344 344/274/347
f 345/277/344 341/278/343 344/274/347
f 340/275/345 343/276/346 344/274/347
f 341/278/343 342/273/342 344/274/347
f 317/298/328 364/296/348 365/294/349 318/299/326
f 330/244/284 324/279/338 329/241/331
f 329/241/331 324/279/338 325/246/334
f 360/281/314 332/265/317 357/266/304
f 351/282/315 332/265/317 360/283/314
f 333/258/337 323/259/316 334/256/318
f 290/259/297 301/258/296 302/256/294
f 338/284/350 332/265/317 361/285/351
f 338/284/350 339/267/341 332/265/317
f 351/282/315 334/256/318 332/265/317
f 338/286/350 361/287/351 324/260/338
f 355/242/282 296/241/281 297/244/313
f 346/289/321 353/236/277 321/240/322
f 346/289/321 347/236/276 286/240/275
f 350/290/293 334/256/318 351/282/315
f 324/260/338 361/287/351 323/259/316
f 361/285/351 332/265/317 323/259/316
f 326/261/339 362/291/352 337/264/340
f 339/267/341 362/291/352 326/261/339
f 338/284/350 362/291/352 339/267/341
f 366/292/353 352/262/300 358/293/325
f 318/299/326 365/294/349 363/295/354 316/300/327
f 365/294/349 339/267/341 363/295/354
f 364/296/348 339/267/341 365/294/349
f 339/267/341 364/297/348 357/266/304
f 326/261/339 366/292/353 339/267/341
f 363/295/354 366/292/353 358/293/325
f 339/267/341 366/292/353 363/295/354
f 326/261/339 352/262/300 366/292/353
f 357/266/304 364/297/348 317/301/328
f 316/300/327 363/295/354 358/302/325
f 48/303/42 44/304/355 515/304/356 516/303/357
f 374/305/358 375/306/359 381/307/360 380/308/361
f 376/309/362 377/310/363 372/311/364 373/312/365
f 373/312/365 372/311/364 375/306/359 374/305/358
f 382/313/366 380/308/361 381/307/360 383/314/367
f 376/309/362 379/315/368 378/316/369 377/310/363
f 379/315/368 382/313/366 383/314/367 378/316/369
f 374/317/358 380/318/361 376/319/362 373/320/365
f 382/321/366 379/322/368 376/319/362 380/318/361
f 370/323/370 371/304/371 530/304/372 526/323/373
f 305/264/302 359/263/301 369/324/374
f 337/264/340 369/324/374 359/263/301
f 356/243/283 368/325/375 330/244/284
f 320/326/376 368/325/375 356/243/283
f 291/260/298 306/286/319 285/327/312
f 305/264/302 285/327/312 315/328/323
f 285/327/312 306/286/319 315/328/323
f 285/327/312 305/264/302 369/329/374
f 300/265/303 290/259/297 302/256/294
f 302/256/294 351/282/315 300/330/303
f 98/231/93 368/232/375 110/75/89
f 110/75/89 320/331/376 271/332/90
f 368/232/375 320/331/376 110/75/89
f 87/229/179 368/333/375 98/230/93
f 369/334/374 87/229/179 278/84/97
f 203/75/191 271/332/90 320/331/376
f 241/232/231 203/75/191 320/331/376
f 285/229/312 278/84/97 204/83/197
f 285/229/312 191/230/195 241/333/231
f 285/229/312 204/83/197 191/230/195
f 369/334/374 278/84/97 285/229/312
f 356/243/283 297/244/313 241/325/231
f 320/326/376 356/243/283 241/325/231
f 297/244/313 285/280/312 241/325/231
f 324/260/338 87/327/179 338/286/350
f 337/264/340 362/328/352 87/327/179
f 87/327/179 362/328/352 338/286/350
f 87/327/179 369/329/374 337/264/340
f 324/279/338 330/244/284 87/280/179
f 330/244/284 368/325/375 87/280/179
f 384/335/377 280/336/147 152/337/130
f 99/130/129 277/338/378 152/337/130
f 277/338/378 192/130/232 246/337/234
f 384/335/377 246/337/234 280/336/147
f 371/304/371 367/303/379 520/303/380 530/304/372
f 193/132/233 209/157/149 386/156/148
f 116/157/248 387/161/152 279/158/150
f 187/148/201 386/156/148 385/165/153 276/164/141
f 385/165/153 386/156/148 279/158/150
f 387/161/152 385/165/153 279/158/150
f 247/162/202 193/132/233 386/156/148
f 387/161/152 100/132/131 153/162/151
f 277/338/378 384/335/377 152/337/130
f 384/335/377 277/338/378 246/337/234
f 272/64/78 271/76/90 182/63/182
f 271/76/90 272/64/78 89/63/77
f 247/162/202 187/148/201 244/163/244
f 94/148/142 153/162/151 150/163/144
f 86/339/381 46/51/41 48/52/42
f 86/339/381 21/30/23 46/51/41
f 47/49/40 84/48/39 370/340/370
f 86/339/381 83/53/43 21/30/23
f 85/339/382 367/52/379 76/51/72
f 85/339/382 76/51/72 52/30/55
f 84/48/39 77/49/71 370/340/370
f 76/51/72 367/52/379 77/49/71
f 85/339/382 52/30/55 83/53/43
f 367/303/379 85/341/382 518/341/383 520/303/380
f 86/341/381 48/303/42 516/303/357 519/341/384
f 44/304/355 370/323/370 526/323/373 515/304/356
f 83/342/43 86/341/381 519/341/384 517/342/385
f 85/341/382 83/342/43 517/342/385 518/341/383
f 394/343/386 395/344/387 392/345/388 393/346/389
f 407/347/390 408/347/391 396/348/392 398/349/393
f 397/350/394 406/351/395 400/352/396
f 406/351/395 399/353/397 400/352/396
f 390/354/398 410/355/399 411/356/400 392/357/388
f 404/358/401 402/359/402 399/353/397 398/360/393
f 399/353/397 407/361/390 398/360/393
f 393/346/389 392/345/388 411/362/400
f 398/363/393 396/364/392 401/365/403 404/366/401
f 393/367/389 391/368/404 408/361/391 394/369/386
f 404/366/401 401/365/403 409/370/405
f 397/350/394 405/371/406 401/372/403 396/373/392
f 395/374/387 394/375/386 408/376/391 407/376/390
f 416/377/407 412/378/408 413/379/409 419/380/410
f 419/380/410 413/379/409 415/381/411 421/382/412
f 421/382/412 415/381/411 414/383/413 417/384/414
f 402/359/402 403/385/415 399/353/397
f 397/350/394 403/385/415 405/371/406
f 408/361/391 397/350/394 396/373/392
f 389/386/416 407/361/390 399/353/397
f 388/386/417 397/350/394 408/361/391
f 403/387/415 402/359/402 404/358/401 409/388/405
f 405/371/406 403/387/415 409/388/405 401/372/403
f 389/386/416 390/354/398 407/389/390
f 392/357/388 395/390/387 407/391/390 390/354/398
f 410/355/399 391/368/404 393/367/389 411/356/400
f 388/386/417 408/361/391 391/368/404
f 417/384/414 414/383/413 422/392/418 420/393/419
f 418/394/420 423/395/421 412/378/408 416/377/407
f 424/396/422 422/392/418 423/395/421 418/394/420
f 388/386/417 406/351/395 397/350/394
f 389/386/416 399/353/397 406/351/395
f 400/352/396 403/385/415 397/350/394
f 399/353/397 403/385/415 400/352/396
f 422/397/418 424/398/422 420/399/419
f 420/400/419 424/401/422 418/402/420 417/403/414
f 416/404/407 421/405/412 417/406/414 418/407/420
f 419/408/410 421/409/412 416/410/407
f 431/343/423 430/346/424 429/345/425 432/344/426
f 444/347/427 435/349/428 433/348/429 445/347/430
f 434/350/431 437/352/432 443/351/433
f 443/351/433 437/352/432 436/353/434
f 427/354/435 429/357/425 448/356/436 447/355/437
f 441/358/438 435/360/428 436/353/434 439/359/439
f 436/353/434 435/360/428 444/361/427
f 430/346/424 448/362/436 429/345/425
f 435/363/428 441/366/438 438/365/440 433/364/429
f 430/367/424 431/369/423 445/361/430 428/368/441
f 441/366/438 446/370/442 438/365/440
f 434/350/431 433/373/429 438/372/440 442/371/443
f 432/374/426 444/376/427 445/376/430 431/375/423
f 453/377/444 456/380/445 450/379/446 449/378/447
f 456/380/445 458/382/448 452/381/449 450/379/446
f 458/382/448 454/384/450 451/383/451 452/381/449
f 439/359/439 436/353/434 440/385/452
f 434/350/431 442/371/443 440/385/452
f 445/361/430 433/373/429 434/350/431
f 426/386/453 436/353/434 444/361/427
f 425/386/454 445/361/430 434/350/431
f 440/387/452 446/388/442 441/358/438 439/359/439
f 442/371/443 438/372/440 446/388/442 440/387/452
f 426/386/453 444/389/427 427/354/435
f 429/357/425 427/354/435 444/391/427 432/390/426
f 447/355/437 448/356/436 430/367/424 428/368/441
f 425/386/454 428/368/441 445/361/430
f 454/384/450 457/393/455 459/392/456 451/383/451
f 455/394/457 453/377/444 449/378/447 460/395/458
f 461/396/459 455/394/457 460/395/458 459/392/456
f 425/386/454 434/350/431 443/351/433
f 426/386/453 443/351/433 436/353/434
f 437/352/432 434/350/431 440/385/452
f 436/353/434 437/352/432 440/385/452
f 459/397/456 457/399/455 461/398/459
f 457/400/455 454/403/450 455/402/457 461/401/459
f 453/404/444 455/407/457 454/406/450 458/405/448
f 456/408/445 453/410/444 458/409/448
f 367/52/379 371/411/371 77/49/71
f 47/49/40 44/411/355 48/52/42
f 44/411/355 47/49/40 370/340/370
f 77/49/71 371/411/371 370/340/370
f 354/239/280 355/242/282 328/238/329
f 354/239/280 295/238/279 355/242/282
f 356/243/283 355/242/282 297/244/313
f 294/237/278 299/253/291 298/251/290
f 466/412/460 467/413/461 465/414/462
f 287/233/274 469/415/463 347/248/276
f 473/416/464 474/417/465 477/413/466 476/412/467
f 471/418/468 473/419/464 476/420/467 478/421/469
f 472/422/470 471/423/468 478/424/469 479/425/471
f 474/426/465 472/427/470 479/428/471 477/429/466
f 476/412/467 477/413/466 475/414/472
f 478/421/469 476/420/467 475/430/472
f 479/425/471 478/424/469 475/414/472
f 477/429/466 479/428/471 475/431/472
f 481/432/473 347/433/276 480/434/473
f 485/435/474 482/436/475 483/437/476
f 484/438/477 485/435/474 483/437/476
f 287/6/274 288/8/289 486/7/478
f 287/9/274 486/7/478 487/10/479
f 298/251/290 489/439/480 488/440/481
f 288/252/289 489/439/480 298/251/290
f 492/11/482 490/13/482 491/12/482
f 463/422/483 462/423/484 466/424/460 468/425/485
f 468/425/485 466/424/460 465/414/462
f 462/416/484 464/417/486 467/413/461 466/412/460
f 495/412/487 496/413/488 494/414/489
f 493/417/490 496/413/488 495/412/487
f 493/417/490 495/412/487 497/412/491
f 495/412/487 494/414/489 497/412/491
f 14/251/492 15/440/493 16/439/494
f 325/246/334 14/251/492 328/238/329 329/241/331
f 327/237/330 328/238/329 14/251/492
f 325/246/334 322/247/333 14/251/492
f 331/253/335 327/237/330 14/251/492
f 16/441/494 15/442/493 498/441/495
f 499/289/496 347/236/276 346/240/321
f 502/412/497 503/413/498 501/414/499
f 500/417/500 503/413/498 502/412/497
f 500/412/500 502/413/497 504/443/501
f 502/413/497 501/414/499 504/443/501
f 506/444/502 507/445/503 505/446/504
f 506/444/502 507/445/503 508/446/505
f 505/447/504 508/448/505 506/448/502
f 10/449/5 347/235/276 321/234/322
f 321/240/322 331/450/335 10/449/5
f 10/449/5 347/248/276 470/415/506
f 10/449/5 11/250/7 348/249/288 347/248/276
f 11/250/7 349/254/292 348/249/288
f 10/449/5 331/253/335 11/250/7
f 322/247/333 349/254/292 11/250/7
f 11/252/7 331/253/335 14/251/492
f 11/252/7 14/251/492 16/439/494
f 322/247/333 11/250/7 14/251/492
f 11/451/7 16/441/494 498/441/495
f 509/452/507 292/453/286 511/454/507
f 510/452/508 512/454/508 325/453/334
f 513/455/496 353/456/277 354/457/280
f 514/458/509 327/459/330 328/460/329
f 9/458/510 295/460/279 294/459/278
f 521/461/511 523/462/512 524/463/513
f 522/464/514 523/465/512 521/466/511
f 524/463/513 525/467/515 529/462/516
f 528/468/517 527/469/518 529/470/516
f 526/471/373 530/472/372 529/473/516 525/474/515
f 529/475/516 530/476/372 520/477/380 528/478/517
f 528/479/517 520/480/380 518/481/383 527/482/518
f 521/483/511 524/484/513 517/485/385 519/486/384
f 522/487/514 521/488/511 519/489/384 516/490/357
f 527/491/518 518/492/383 517/493/385 524/494/513
f 526/471/373 525/474/515 523/473/512 515/472/356
f 523/495/512 522/496/514 516/497/357 515/498/356
f 527/461/518 524/463/513 529/462/516
f 523/462/512 525/467/515 524/463/513
f 540/499/519 543/500/520 537/413/521 536/412/522
f 541/501/523 540/502/519 536/420/522 538/421/524
f 542/503/525 541/504/523 539/425/526
f 537/429/521 543/505/520 539/428/526
f 536/412/522 537/413/521 535/414/527
f 538/421/524 536/420/522 535/430/527
f 539/425/526 538/424/524 535/414/527
f 537/429/521 539/428/526 535/431/527
f 533/506/528 534/507/529 543/508/520 540/509/519
f 531/510/530 533/511/528 540/512/519 541/513/523
f 532/514/531 531/515/530 541/516/523 542/517/525
f 534/518/529 532/519/531 542/520/525 543/521/520
f 543/505/520 542/522/525 539/428/526
f 541/504/523 538/424/524 539/425/526
f 524/523/513 517/524/385 544/525/532 545/526/532
